<?xml version="1.0" encoding="UTF-8"?>
<!DOCTYPE svg PUBLIC "-//W3C//DTD SVG 1.1//EN" "http://www.w3.org/Graphics/SVG/1.1/DTD/svg11.dtd">
<!-- Creator: CorelDRAW 2020 (64 Bit) -->
<svg xmlns="http://www.w3.org/2000/svg" xml:space="preserve" width="361px" height="110px" version="1.1" style="shape-rendering:geometricPrecision; text-rendering:geometricPrecision; image-rendering:optimizeQuality; fill-rule:evenodd; clip-rule:evenodd"
viewBox="0 0 36087 10967"
 xmlns:xlink="http://www.w3.org/1999/xlink"
 xmlns:xodm="http://www.corel.com/coreldraw/odm/2003">
 <defs>
  <style type="text/css">
   <![CDATA[
    .fil3 {fill:none;fill-rule:nonzero}
    .fil0 {fill:#008FF4;fill-rule:nonzero}
    .fil1 {fill:#012325;fill-rule:nonzero}
    .fil2 {fill:url(#id1);fill-rule:nonzero}
   ]]>
  </style>
    <clipPath id="id0" style="clip-rule:nonzero">
     <path d="M7772 3719c1166,0 2332,0 3498,0l0 4363 -3887 2534 -3885 -2546c-1166,0 -2332,0 -3498,0l0 -4364 3887 -2534 3885 2547zm-4228 3542l-32 -3211 3434 2169 8 -2089 -3065 -1983 -3069 2000 0 3103c910,8 1819,11 2724,11zm4215 -2722l0 3199 -3435 -2169 -7 2089 3064 1984 3069 -2001 0 -3102c-897,0 -1794,0 -2691,0z"/>
    </clipPath>
  <linearGradient id="id1" gradientUnits="userSpaceOnUse" x1="4346" y1="8597" x2="7236" y2="3399">
   <stop offset="0" style="stop-opacity:1; stop-color:#076EB9"/>
   <stop offset="1" style="stop-opacity:1; stop-color:#0091F8"/>
  </linearGradient>
 </defs>
 <g id="Camada_x0020_1">
  <metadata id="CorelCorpID_0Corel-Layer"/>
  <g id="_1998619236624">
   <path class="fil0" d="M16408 10963c204,0 400,-95 525,-246l-99 -97c-79,90 -218,197 -418,197 -222,0 -435,-155 -435,-506 0,-336 182,-509 442,-509 134,0 274,62 362,206l121 -79c-95,-173 -275,-266 -479,-266 -363,0 -606,252 -606,655 0,441 287,645 587,645zm1041 4c257,0 421,-185 421,-464 0,-278 -164,-463 -421,-463 -252,0 -419,185 -421,463 -2,279 166,464 421,464zm0 -129c-181,0 -275,-118 -275,-335 0,-216 95,-335 275,-335 182,0 275,119 275,335 0,217 -93,335 -275,335zm1126 -798c-109,0 -232,51 -342,143l0 -120 -144 0 0 881 148 0 0 -642c115,-86 227,-130 321,-130 93,0 144,41 144,176l0 596 146 0 0 -629c0,-175 -95,-275 -273,-275zm906 795c-165,0 -255,-110 -273,-270l414 0c146,0 233,-86 233,-222 0,-206 -176,-303 -344,-303 -301,0 -451,224 -451,477 0,296 194,446 414,446 120,0 259,-45 363,-139l-77 -102c-78,72 -185,113 -279,113zm21 -681c136,0 217,85 217,177 0,86 -49,123 -114,123l-399 0c18,-185 134,-300 296,-300zm1280 790l-331 -449 317 -432 -168 0 -234 335 -227 -335 -182 0 312 428 -328 453 171 0 242 -351 248 351 180 0zm652 -1006c79,0 173,-62 190,-185l-109 -27c-18,71 -47,102 -86,102 -81,0 -117,-107 -235,-107 -88,0 -165,51 -195,178l104 33c21,-67 54,-102 97,-102 72,0 120,108 234,108zm-123 1029c257,0 421,-185 421,-464 0,-278 -164,-463 -421,-463 -252,0 -420,185 -422,463 -1,279 166,464 422,464zm0 -129c-182,0 -275,-118 -275,-335 0,-216 95,-335 275,-335 181,0 275,119 275,335 0,217 -94,335 -275,335zm1006 -3c-166,0 -256,-110 -273,-270l414 0c146,0 233,-86 233,-222 0,-206 -177,-303 -344,-303 -301,0 -451,224 -451,477 0,296 194,446 414,446 120,0 259,-45 363,-139l-78 -102c-77,72 -185,113 -278,113zm21 -681c136,0 217,85 217,177 0,86 -49,123 -115,123l-398 0c18,-185 134,-300 296,-300zm829 809c181,0 349,-88 349,-266 0,-164 -140,-217 -305,-266 -94,-28 -201,-56 -201,-148 0,-77 79,-127 186,-127 80,0 156,25 230,76l68 -97c-86,-65 -192,-95 -298,-95 -172,0 -324,81 -324,252 0,155 131,213 273,257 103,32 230,55 230,159 0,95 -108,135 -207,135 -82,0 -185,-28 -276,-112l-71 93c83,95 219,139 346,139zm976 -19l153 0 0 -1258 -153 0 0 1258zm1539 -904c-122,0 -235,49 -349,157 -36,-103 -122,-157 -254,-157 -108,0 -213,53 -333,166l0 -143 -145 0 0 881 148 0 0 -620c132,-113 214,-152 312,-152 101,0 143,53 143,176l0 596 146 0 0 -629c117,-106 203,-143 314,-143 100,0 143,53 143,176l0 596 146 0 0 -629c0,-178 -95,-275 -271,-275zm904 927c257,0 421,-185 421,-464 0,-278 -164,-463 -421,-463 -252,0 -420,185 -421,463 -2,279 165,464 421,464zm0 -129c-182,0 -275,-118 -275,-335 0,-216 95,-335 275,-335 181,0 275,119 275,335 0,217 -94,335 -275,335zm1070 -798c-119,0 -212,47 -288,114l0 -468 -148 0 0 1173c97,71 212,108 340,108 298,0 464,-199 464,-478 0,-273 -141,-449 -368,-449zm-97 798c-71,0 -136,-16 -191,-46l0 -509c73,-74 162,-115 258,-115 167,0 250,112 250,305 0,235 -123,365 -317,365zm756 -906c60,0 97,-38 97,-98 0,-60 -37,-99 -97,-99 -60,0 -97,39 -97,99 0,60 37,98 97,98zm-74 1012l146 0 0 -881 -146 0 0 881zm417 0l143 0 0 -1258 -143 0 0 1258zm489 -1012c60,0 97,-38 97,-98 0,-60 -37,-99 -97,-99 -60,0 -97,39 -97,99 0,60 37,98 97,98zm-74 1012l146 0 0 -881 -146 0 0 881zm966 -1204l-87 -113 -292 275 60 74 319 -236zm-226 300c-130,0 -261,42 -356,139l77 101c97,-83 187,-112 279,-112 152,0 233,78 233,228l0 26c-60,-9 -124,-14 -189,-14 -229,0 -428,72 -428,287 0,161 123,272 303,272 152,0 254,-69 314,-173l0 150 135 0 0 -538c0,-238 -141,-366 -368,-366zm-58 812c-106,0 -178,-63 -178,-157 0,-132 120,-185 296,-185 51,0 109,6 173,14 -9,178 -94,328 -291,328zm1112 -812c-102,0 -212,47 -282,139l0 -116 -141 0 0 881 144 0 0 -638c87,-92 184,-132 270,-132 32,0 58,5 94,12l22 -125c-33,-14 -68,-21 -107,-21zm333 -108c60,0 97,-38 97,-98 0,-60 -37,-99 -97,-99 -60,0 -97,39 -97,99 0,60 37,98 97,98zm-74 1012l146 0 0 -881 -146 0 0 881zm740 -904c-130,0 -261,42 -356,139l78 101c97,-83 187,-112 278,-112 152,0 233,78 233,228l0 26c-60,-9 -123,-14 -189,-14 -229,0 -428,72 -428,287 0,161 123,272 303,272 152,0 254,-69 314,-173l0 150 136 0 0 -538c0,-238 -141,-366 -369,-366zm-58 812c-106,0 -178,-63 -178,-157 0,-132 120,-185 296,-185 51,0 110,6 173,14 -9,178 -93,328 -291,328zm952 111c181,0 349,-88 349,-266 0,-164 -139,-217 -305,-266 -93,-28 -201,-56 -201,-148 0,-77 79,-127 187,-127 79,0 155,25 229,76l69 -97c-87,-65 -192,-95 -298,-95 -173,0 -324,81 -324,252 0,155 130,213 273,257 102,32 229,55 229,159 0,95 -108,135 -206,135 -83,0 -185,-28 -277,-112l-70 93c82,95 218,139 345,139z"/>
   <path class="fil1" d="M12916 7706l0 -6534c1823,1294 3677,2559 5472,3885l74 55 0 -3944 2007 0 0 7567 -472 -334c-1691,-1200 -3407,-2370 -5074,-3600l0 3944 -2007 0 0 -1039zm13172 -6797l1225 -909 -1699 0 -1037 863c198,-24 401,-37 609,-37 313,0 615,29 902,83zm-902 7837c2337,0 4032,-1572 4032,-3786 0,-2214 -1695,-3785 -4032,-3785 -2337,0 -4045,1571 -4045,3785 0,2214 1708,3786 4045,3786zm0 -1749c-1066,0 -1886,-766 -1886,-2037 0,-1271 820,-2036 1886,-2036 1066,0 1872,765 1872,2036 0,1271 -806,2037 -1872,2037zm7430 1749c2201,0 3471,-971 3471,-2337 0,-2897 -4441,-1681 -4441,-2938 0,-383 410,-684 1367,-684 669,0 1394,137 2118,547l710 -1517c-696,-410 -1817,-642 -2828,-642 -2146,0 -3403,984 -3403,2378 0,2938 4441,1706 4441,2911 0,409 -369,669 -1353,669 -902,0 -1899,-287 -2555,-711l-711 1531c684,451 1941,793 3184,793z"/>
   <path class="fil2" d="M7772 3719c1166,0 2332,0 3498,0l0 4363 -3887 2534 -3885 -2546c-1166,0 -2332,0 -3498,0l0 -4364 3887 -2534 3885 2547zm-4228 3542l-32 -3211 3434 2169 8 -2089 -3065 -1983 -3069 2000 0 3103c910,8 1819,11 2724,11zm4215 -2722l0 3199 -3435 -2169 -7 2089 3064 1984 3069 -2001 0 -3102c-897,0 -1794,0 -2691,0z"/>
   <g style="clip-path:url(#id0)">
    <g>
     <polygon id="1" class="fil3" points="-5032,8063 -1534,8063 -1534,12427 -5421,14961 -9306,12415 -12805,12415 -12805,8051 -8917,5517 "/>
    </g>
   </g>
   <path class="fil3" d="M7772 3719c1166,0 2332,0 3498,0l0 4363 -3887 2534 -3885 -2546c-1166,0 -2332,0 -3498,0l0 -4364 3887 -2534 3885 2547zm-4228 3542l-32 -3211 3434 2169 8 -2089 -3065 -1983 -3069 2000 0 3103c910,8 1819,11 2724,11zm4215 -2722l0 3199 -3435 -2169 -7 2089 3064 1984 3069 -2001 0 -3102c-897,0 -1794,0 -2691,0z"/>
  </g>
 </g>
</svg>
