<?xml version="1.0" encoding="UTF-8"?>
<svg width="24px" height="24px" viewBox="0 0 24 24" version="1.1" xmlns="http://www.w3.org/2000/svg" xmlns:xlink="http://www.w3.org/1999/xlink"> 
    <g transform="translate(2.000000, 5.000000)" fill="#0091f8">
        <path d="M14.2057895,3.91263158 L13.4947368,3.91263158 C13.3724572,3.90777236 13.2573281,3.9702379 13.1947423,4.0753994 C13.1321565,4.1805609 13.1321565,4.31154436 13.1947423,4.41670586 C13.2573281,4.52186736 13.3724572,4.5843329 13.4947368,4.57947368 L14.2057895,4.57947368 C14.3847823,4.57236077 14.526224,4.42518668 14.526224,4.24605263 C14.526224,4.06691858 14.3847823,3.9197445 14.2057895,3.91263158 Z" id="Path"></path>
        <path d="M13.7505263,6.40263158 L6.12473684,6.40263158 C5.91251626,6.40259692 5.71212242,6.50036981 5.58153992,6.66765935 C5.45095743,6.83494888 5.40476029,7.05308429 5.45631579,7.25894737 L5.63421053,7.97052632 C5.71062317,8.2774478 5.98634112,8.49281174 6.30263158,8.49263158 L13.5726316,8.49263158 C13.888922,8.49281174 14.16464,8.2774478 14.2410526,7.97052632 L14.4189474,7.25894737 C14.4705029,7.05308429 14.4243057,6.83494888 14.2937232,6.66765935 C14.1631407,6.50036981 13.9627469,6.40259692 13.7505263,6.40263158 Z M13.7721053,7.09736842 L13.5942105,7.80894737 C13.5917768,7.81887545 13.5828535,7.82584003 13.5726316,7.82578947 L6.30263158,7.82578947 C6.29240969,7.82584003 6.28348632,7.81887545 6.28105263,7.80894737 L6.10315789,7.09736842 C6.10134295,7.09068222 6.10276772,7.08353186 6.10700687,7.07805199 C6.11124602,7.07257211 6.11780911,7.06939669 6.12473684,7.06947368 L13.7505263,7.06947368 C13.757454,7.06939669 13.7640171,7.07257211 13.7682563,7.07805199 C13.7724954,7.08353186 13.7739202,7.09068222 13.7721053,7.09736842 Z" id="Shape" fill-rule="nonzero"></path>
        <path d="M18.83,4.58105263 C19.4069922,4.58105263 19.8747368,4.11330801 19.8747368,3.53631579 C19.8747368,2.95932356 19.4069922,2.49157895 18.83,2.49157895 L18.4736842,2.49157895 C17.9610712,2.49215641 17.5243603,2.86402914 17.4421053,3.37 L16.5526316,0.923684211 C16.3504603,0.37106417 15.8252808,0.00301836745 15.2368421,0.00157894737 L4.63789474,0.00157894737 C4.04945607,0.00301836745 3.52427655,0.37106417 3.32210526,0.923684211 L2.43210526,3.37052632 C2.34985023,2.86455545 1.9131393,2.49268272 1.40052632,2.49210526 L1.04473684,2.49210526 C0.467744617,2.49210526 7.06611682e-17,2.95984988 0,3.53684211 C-7.06611682e-17,4.11383433 0.467744617,4.58157895 1.04473684,4.58157895 L1.40052632,4.58157895 C1.55919543,4.58193492 1.71583602,4.54592559 1.85842105,4.47631579 L1.09578947,5.42947368 C0.847101343,5.74120986 0.711470942,6.12806265 0.711052632,6.52684211 L0.711052632,13.1389474 C0.711632289,13.5192021 1.01974524,13.8273151 1.4,13.8278947 L2.46789474,13.8278947 C2.84856051,13.8278952 3.15731401,13.5196127 3.15789474,13.1389474 L3.15789474,11.6936842 L16.7178947,11.6936842 L16.7178947,13.1389474 C16.7184744,13.5192021 17.0265873,13.8273151 17.4068421,13.8278947 L18.4736842,13.8278947 C18.853939,13.8273151 19.1620519,13.5192021 19.1626316,13.1389474 L19.1626316,6.52368421 C19.1622133,6.12490475 19.0265829,5.73805197 18.7778947,5.42631579 L18.0163158,4.47578947 C18.1589008,4.54539928 18.3155414,4.58140861 18.4742105,4.58105263 L18.83,4.58105263 Z M1.40052632,3.91263158 L1.04473684,3.91263158 C0.836031342,3.91263158 0.666842105,3.74344234 0.666842105,3.53473684 C0.666842105,3.32603134 0.836031342,3.15684211 1.04473684,3.15684211 L1.40052632,3.15684211 C1.60923182,3.15684211 1.77842105,3.32603134 1.77842105,3.53473684 C1.77842105,3.74344234 1.60923182,3.91263158 1.40052632,3.91263158 Z M2.49,13.1384211 C2.49,13.1506295 2.48010314,13.1605263 2.46789474,13.1605263 L1.40052632,13.1605263 C1.38831792,13.1605263 1.37842105,13.1506295 1.37842105,13.1384211 L1.37842105,11.4852632 C1.59859166,11.622424 1.85270597,11.6953406 2.11210526,11.6957895 L2.49,11.6957895 L2.49,13.1384211 Z M13.8726316,11.0263158 L6,11.0263158 L6,10.2926316 C6,10.2804232 6.00989686,10.2705263 6.02210526,10.2705263 L13.85,10.2705263 C13.8622084,10.2705263 13.8721053,10.2804232 13.8721053,10.2926316 L13.8726316,11.0263158 Z M18.4736842,13.16 L17.4073684,13.16 C17.39516,13.16 17.3852632,13.1501031 17.3852632,13.1378947 L17.3852632,11.6926316 L17.7631579,11.6926316 C18.0225572,11.6921827 18.2766715,11.6192661 18.4968421,11.4821053 L18.4968421,13.1352632 C18.4976304,13.1417545 18.4955043,13.1482617 18.4910354,13.1530354 C18.4865665,13.157809 18.4802134,13.1603591 18.4736842,13.16 Z M18.4957895,6.52263158 L18.4957895,10.2921053 C18.4940597,10.6965892 18.1665892,11.0240597 17.7621053,11.0257895 L14.5394737,11.0257895 L14.5394737,10.2921053 C14.538894,9.9118505 14.2307811,9.60373755 13.8505263,9.60315789 L6.02473684,9.60315789 C5.64448208,9.60373755 5.33636913,9.9118505 5.33578947,10.2921053 L5.33578947,11.0257895 L2.11210526,11.0257895 C1.70762134,11.0240597 1.38015087,10.6965892 1.37842105,10.2921053 L1.37842105,6.52263158 C1.3787871,6.27528933 1.46302361,6.03538227 1.61736842,5.84210526 L2.62842105,4.57894737 L12.0715789,4.57894737 C12.2505717,4.57183445 12.3920135,4.42466037 12.3920135,4.24552632 C12.3920135,4.06639227 12.2505717,3.91921818 12.0715789,3.91210526 L2.94368421,3.91210526 L3.94736842,1.15 C4.05349872,0.86057862 4.32857691,0.667813904 4.63684211,0.666842105 L15.2368421,0.666842105 C15.5451073,0.667813904 15.8201855,0.86057862 15.9263158,1.15 L16.9310526,3.91263158 L15.6284211,3.91263158 C15.5061414,3.90777236 15.3910123,3.9702379 15.3284265,4.0753994 C15.2658407,4.1805609 15.2658407,4.31154436 15.3284265,4.41670586 C15.3910123,4.52186736 15.5061414,4.5843329 15.6284211,4.57947368 L17.2468421,4.57947368 L18.2578947,5.84263158 C18.4121261,6.03613997 18.4961767,6.27623162 18.4963158,6.52368421 L18.4957895,6.52263158 Z M18.0957895,3.53368421 C18.0960794,3.32509891 18.2650989,3.15607938 18.4736842,3.15578947 L18.8294737,3.15578947 C19.0381792,3.15578947 19.2073684,3.32497871 19.2073684,3.53368421 C19.2073684,3.74238971 19.0381792,3.91157895 18.8294737,3.91157895 L18.4736842,3.91157895 C18.2657139,3.91100225 18.0971827,3.7427061 18.0963158,3.53473684 L18.0957895,3.53368421 Z" id="Shape" fill-rule="nonzero"></path>
        <path d="M3.53473684,8.89263158 C3.15424172,8.89263158 2.84578947,9.20108382 2.84578947,9.58157895 C2.84578947,9.96207407 3.15424172,10.2705263 3.53473684,10.2705263 C3.91523197,10.2705263 4.22368421,9.96207407 4.22368421,9.58157895 C4.22310455,9.20132418 3.91499161,8.89321124 3.53473684,8.89263158 Z" id="Path"></path>
        <path d="M16.3426316,8.89263158 C15.9621365,8.89263158 15.6536842,9.20108382 15.6536842,9.58157895 C15.6536842,9.96207407 15.9621365,10.2705263 16.3426316,10.2705263 C16.7231267,10.2705263 17.0315789,9.96207407 17.0315789,9.58157895 C17.0309993,9.20132418 16.7228863,8.89321124 16.3426316,8.89263158 Z" id="Path"></path>
        <path d="M3.35526316,6.04684211 C2.86075484,6.04684211 2.414939,6.34472673 2.22569887,6.80159284 C2.03645873,7.25845894 2.1410619,7.78433458 2.49073208,8.13400476 C2.84040226,8.48367495 3.3662779,8.58827811 3.82314401,8.39903798 C4.28001012,8.20979784 4.57789474,7.763982 4.57789474,7.26947368 C4.57702486,6.59459355 4.03014329,6.04771198 3.35526316,6.04684211 Z M3.35526316,7.82526316 C3.1304673,7.82526316 2.92780629,7.6898494 2.84178064,7.48216511 C2.75575499,7.27448082 2.80330598,7.03542585 2.96226065,6.87647118 C3.12121533,6.7175165 3.36027029,6.66996551 3.56795458,6.75599117 C3.77563887,6.84201682 3.91105263,7.04467783 3.91105263,7.26947368 C3.91076248,7.57630747 3.66209694,7.82497301 3.35526316,7.82526316 Z" id="Shape" fill-rule="nonzero"></path>
        <path d="M16.5178947,6.04684211 C16.0233864,6.04684211 15.5775706,6.34472673 15.3883304,6.80159284 C15.1990903,7.25845894 15.3036935,7.78433458 15.6533637,8.13400476 C16.0030338,8.48367495 16.5289095,8.58827811 16.9857756,8.39903798 C17.4426417,8.20979784 17.7405263,7.763982 17.7405263,7.26947368 C17.7396564,6.59459355 17.1927749,6.04771198 16.5178947,6.04684211 Z M16.5178947,7.82526316 C16.2928599,7.82547465 16.0899053,7.68996712 16.0038384,7.48204108 C15.9177716,7.27411504 15.9655797,7.03480929 16.1249299,6.87591226 C16.28428,6.71701523 16.5237209,6.66988876 16.7314011,6.75654735 C16.9390812,6.84320594 17.0740102,7.04654559 17.0731579,7.27157895 C17.0717118,7.57738527 16.8237039,7.82468794 16.5178947,7.82526316 Z" id="Shape" fill-rule="nonzero"></path>
    </g> 
</svg>