<?xml version="1.0" encoding="UTF-8"?>
<svg width="24px" height="24px" viewBox="0 0 24 24" version="1.1" xmlns="http://www.w3.org/2000/svg" xmlns:xlink="http://www.w3.org/1999/xlink"> 
    <g transform="translate(2.000000, 3.000000)" fill="#0091f8">
        <path d="M19.2423529,10.3723529 L18.9164706,10.3723529 L18.9164706,9.39411765 C18.9156544,8.74655208 18.5317192,8.16083735 17.9382353,7.90176471 L17.9382353,2.87117647 C17.9380797,2.74150673 17.8611973,2.62422078 17.7423529,2.57235294 C17.869594,2.36852099 17.9374321,2.13322666 17.9382353,1.89294118 C17.9482724,1.42031652 17.7018715,0.979233901 17.2941575,0.739976548 C16.8864434,0.500719195 16.3812036,0.500719195 15.9734896,0.739976548 C15.5657756,0.979233901 15.3193746,1.42031652 15.3294118,1.89294118 C15.330844,2.12261691 15.3933763,2.34777361 15.5105882,2.54529412 L4.05882353,2.54529412 C4.17603549,2.34777361 4.23856774,2.12261691 4.24,1.89294118 C4.25003712,1.42031652 4.00363621,0.979233901 3.59592218,0.739976548 C3.18820815,0.500719195 2.68296832,0.500719195 2.27525429,0.739976548 C1.86754026,0.979233901 1.62113935,1.42031652 1.63117647,1.89294118 C1.63197962,2.13322666 1.69981773,2.36852099 1.82705882,2.57235294 C1.70821442,2.62422078 1.63133209,2.74150673 1.63117647,2.87117647 L1.63117647,7.90176471 C1.03769252,8.16083735 0.653757322,8.74655208 0.652941176,9.39411765 L0.652941176,10.3723529 L0.327058824,10.3723529 C0.14707897,10.3723529 0.00117647059,10.5182554 0.00117647059,10.6982353 L0.00117647059,15.2641176 C0.00117647059,15.4440975 0.14707897,15.59 0.327058824,15.59 L0.652941176,15.59 L0.652941176,17.2205882 C0.652941176,17.4005681 0.798843676,17.5464706 0.978823529,17.5464706 L2.28352941,17.5464706 C2.46350927,17.5464706 2.60941176,17.4005681 2.60941176,17.2205882 L2.60941176,15.5882353 L16.9623529,15.5882353 L16.9623529,17.2188235 C16.9623529,17.3988034 17.1082554,17.5447059 17.2882353,17.5447059 L18.5882353,17.5447059 C18.7682151,17.5447059 18.9141176,17.3988034 18.9141176,17.2188235 L18.9141176,15.5882353 L19.24,15.5882353 C19.4199799,15.5882353 19.5658824,15.4423328 19.5658824,15.2623529 L19.5658824,10.6982353 C19.565887,10.5191703 19.4214132,10.3736458 19.2423529,10.3723529 Z M16.6329412,1.24058824 C16.9932258,1.24058824 17.2852941,1.5326566 17.2852941,1.89294118 C17.2852941,2.25322576 16.9932258,2.54529412 16.6329412,2.54529412 C16.2726566,2.54529412 15.9805882,2.25322576 15.9805882,1.89294118 C15.9805882,1.5326566 16.2726566,1.24058824 16.6329412,1.24058824 Z M2.93529412,1.24058824 C3.2955787,1.24058824 3.58764706,1.5326566 3.58764706,1.89294118 C3.58764706,2.25322576 3.2955787,2.54529412 2.93529412,2.54529412 C2.57500954,2.54529412 2.28294118,2.25322576 2.28294118,1.89294118 C2.28294118,1.5326566 2.57500954,1.24058824 2.93529412,1.24058824 Z M2.28294118,3.19764706 L17.2829412,3.19764706 L17.2829412,7.76470588 L15.9723529,7.76470588 C16.1882011,7.48416738 16.3058101,7.14043487 16.3070588,6.78647059 L16.3070588,6.13235294 C16.3057629,5.23234126 15.5764823,4.50306062 14.6764706,4.50176471 L12.0670588,4.50176471 C11.1670471,4.50306062 10.4377665,5.23234126 10.4364706,6.13235294 L10.4364706,6.78470588 C10.4377193,7.13867017 10.5553283,7.48240268 10.7711765,7.76294118 L8.79705882,7.76294118 C9.01290698,7.48240268 9.130516,7.13867017 9.13176471,6.78470588 L9.13176471,6.13235294 C9.13046879,5.23234126 8.40118815,4.50306062 7.50117647,4.50176471 L4.89176471,4.50176471 C3.99175302,4.50306062 3.26247239,5.23234126 3.26117647,6.13235294 L3.26117647,6.78470588 C3.26242518,7.13867017 3.3800342,7.48240268 3.59588235,7.76294118 L2.28294118,7.76294118 L2.28294118,3.19764706 Z M15.6547059,6.13294118 L15.6547059,6.78529412 C15.6550183,7.04504398 15.5520117,7.29425357 15.3683959,7.47797976 C15.18478,7.66170595 14.9356324,7.76486226 14.6758824,7.76470588 L12.0670588,7.76470588 C11.5267944,7.76470588 11.0888235,7.32673502 11.0888235,6.78647059 L11.0888235,6.13235294 C11.0888235,5.59208851 11.5267944,5.15411765 12.0670588,5.15411765 L14.6758824,5.15411765 C14.9354284,5.15396158 15.1843975,5.25695645 15.3679795,5.44042808 C15.5515614,5.6238997 15.6547059,5.87280686 15.6547059,6.13235294 L15.6547059,6.13294118 Z M8.47823529,6.13294118 L8.47823529,6.78529412 C8.4785475,7.04473831 8.37578302,7.29368034 8.19254891,7.47735571 C8.00931479,7.66103109 7.76062066,7.76439405 7.50117647,7.76470588 L4.89176471,7.76470588 C4.35150027,7.76470588 3.91352941,7.32673502 3.91352941,6.78647059 L3.91352941,6.13235294 C3.91352941,5.59208851 4.35150027,5.15411765 4.89176471,5.15411765 L7.50058824,5.15411765 C7.76013427,5.15396158 8.00910339,5.25695645 8.19268534,5.44042808 C8.37626729,5.6238997 8.47941181,5.87280686 8.47941176,6.13235294 L8.47823529,6.13294118 Z M1.30176471,9.39411765 C1.30176471,8.85385321 1.73973557,8.41588235 2.28,8.41588235 L17.28,8.41588235 C17.8202644,8.41588235 18.2582353,8.85385321 18.2582353,9.39411765 L18.2582353,10.3723529 L1.30470588,10.3723529 L1.30176471,9.39411765 Z M1.95411765,16.8952941 L1.30470588,16.8952941 L1.30470588,15.5882353 L1.95705882,15.5882353 L1.95411765,16.8952941 Z M18.2611765,16.8952941 L17.6111765,16.8952941 L17.6111765,15.5882353 L18.2635294,15.5882353 L18.2611765,16.8952941 Z M18.9158824,14.9411765 L0.652352941,14.9411765 L0.652352941,11.0247059 L18.9158824,11.0247059 L18.9158824,14.9411765 Z" id="Shape" fill-rule="nonzero"></path>
        <path d="M1.63058824,14.2858824 L2.93529412,14.2858824 C3.11543641,14.2858824 3.26147059,14.1398482 3.26147059,13.9597059 C3.26147059,13.7795636 3.11543641,13.6335294 2.93529412,13.6335294 L1.63058824,13.6335294 C1.45044594,13.6335294 1.30441176,13.7795636 1.30441176,13.9597059 C1.30441176,14.1398482 1.45044594,14.2858824 1.63058824,14.2858824 Z" id="Path"></path>
        <path d="M4.23941176,14.2858824 L17.9370588,14.2858824 C18.1172011,14.2858824 18.2632353,14.1398482 18.2632353,13.9597059 C18.2632353,13.7795636 18.1172011,13.6335294 17.9370588,13.6335294 L4.23941176,13.6335294 C4.05926947,13.6335294 3.91323529,13.7795636 3.91323529,13.9597059 C3.91323529,14.1398482 4.05926947,14.2858824 4.23941176,14.2858824 Z" id="Path"></path>
    </g> 
</svg>