<?xml version="1.0" encoding="UTF-8"?>
<svg width="24px" height="24px" viewBox="0 0 24 24" version="1.1" xmlns="http://www.w3.org/2000/svg" xmlns:xlink="http://www.w3.org/1999/xlink">
    <g transform="translate(4.000000, 2.000000)" fill="#0091f8">
        <path d="M14.8748387,3.5516129 L12.9677419,3.5516129 L12.9677419,2.78903226 C13.1697179,2.77727775 13.3274872,2.61005967 13.3274872,2.40774194 C13.3274872,2.2054242 13.1697179,2.03820613 12.9677419,2.02645161 L11.0606452,2.02645161 C10.849708,2.02645161 10.6787097,2.19744995 10.6787097,2.4083871 L10.6787097,3.5516129 L9.34451613,3.5516129 L9.34451613,0.881935484 C9.34451643,0.671250035 9.17391095,0.500355888 8.96322581,0.5 L7.05612903,0.5 C6.84519189,0.5 6.67419355,0.670998341 6.67419355,0.881935484 L6.67419355,3.5516129 L5.34,3.5516129 L5.34,2.40709677 C5.34,2.19615963 5.16900166,2.02516129 4.95806452,2.02516129 L3.0516129,2.02516129 C2.84963692,2.0369158 2.69186759,2.20413387 2.69186759,2.40645161 C2.69186759,2.60876935 2.84963692,2.77598742 3.0516129,2.78774194 L3.0516129,3.55032258 L1.14451613,3.55032258 C0.513067973,3.55067742 0.00106713679,4.06210103 0,4.69354839 L0,5.45806452 C7.16272919e-17,7.35471724 1.53754082,8.89225806 3.43419355,8.89225806 L5.70645161,8.89225806 L5.34,18.843871 C5.33683506,18.9606812 5.38749796,19.0724725 5.47741935,19.1470968 C6.19342012,19.7264047 7.089386,20.0372313 8.01032258,20.0258065 C8.93127691,20.0365339 9.82701562,19.7250222 10.5425806,19.1451613 C10.6323455,19.0704177 10.682972,18.9587066 10.68,18.8419355 L10.6529032,18.0987097 C10.636193,17.8950901 10.4622024,17.7406775 10.2580397,17.7482775 C10.053877,17.7558774 9.89184807,17.9227984 9.89032258,18.1270968 L9.91032258,18.6754839 C8.76560662,19.4622991 7.25439338,19.4622991 6.10967742,18.6754839 L6.47032258,8.89032258 L9.5483871,8.89032258 L9.76258065,14.6967742 C9.77019877,14.9016494 9.93820972,15.0639651 10.1432258,15.0645161 L10.1574194,15.0645161 C10.2583968,15.0608212 10.3537617,15.0171284 10.4224993,14.943066 C10.491237,14.8690036 10.5277063,14.7706497 10.523871,14.6696774 L10.3116129,8.89032258 L12.5870968,8.89032258 C14.4837495,8.89032258 16.0212903,7.35278176 16.0212903,5.45612903 L16.0212903,4.69354839 C16.0195113,4.06184944 15.5065398,3.55089862 14.8748387,3.5516129 Z M11.4406452,2.78903226 L12.2032258,2.78903226 L12.2032258,3.5516129 L11.4406452,3.5516129 L11.4406452,2.78903226 Z M8.58516129,1.26258064 L8.58516129,2.02516129 L7.43806452,2.02516129 L7.43806452,1.26258064 L8.58516129,1.26258064 Z M7.43806452,2.78903226 L8.58516129,2.78903226 L8.58516129,3.5516129 L7.43806452,3.5516129 L7.43806452,2.78903226 Z M3.81483871,2.78903226 L4.58064516,2.78903226 L4.58064516,3.5516129 L3.81419355,3.5516129 L3.81483871,2.78903226 Z M15.2567742,5.45806452 C15.2553516,6.93189697 14.0609292,8.12631932 12.5870968,8.12774194 L3.43419355,8.12774194 C1.9596053,8.12738661 0.764004637,6.93265212 0.762580645,5.45806452 L0.762580645,4.69354839 C0.762580645,4.48261124 0.933578986,4.3116129 1.14451613,4.3116129 L14.8748387,4.3116129 C15.0857759,4.3116129 15.2567742,4.48261124 15.2567742,4.69354839 L15.2567742,5.45806452 Z" id="Shape" fill-rule="nonzero"></path>
        <path d="M5.72129032,5.07741935 C5.51931434,5.08917387 5.36154501,5.25639194 5.36154501,5.45870968 C5.36154501,5.66102742 5.51931434,5.82824549 5.72129032,5.84 C5.86280538,5.84823583 5.9972414,5.77741716 6.07048402,5.65605053 C6.14372663,5.5346839 6.14372663,5.38273546 6.07048402,5.26136883 C5.9972414,5.1400022 5.86280538,5.06918352 5.72129032,5.07741935 Z" id="Path"></path>
        <path d="M4.00516129,5.07741935 L1.9083871,5.07741935 C1.70641111,5.08917387 1.54864179,5.25639194 1.54864179,5.45870968 C1.54864179,5.66102742 1.70641111,5.82824549 1.9083871,5.84 L4.00645161,5.84 C4.14796667,5.84823583 4.28240269,5.77741716 4.35564531,5.65605053 C4.42888792,5.5346839 4.42888792,5.38273546 4.35564531,5.26136883 C4.28240269,5.1400022 4.14796667,5.06918352 4.00645161,5.07741935 L4.00516129,5.07741935 Z" id="Path"></path>
        <path d="M10.2083871,16.0167742 C10.0539086,16.0167742 9.91464108,16.1098298 9.85552472,16.2525493 C9.79640836,16.3952688 9.82908514,16.5595461 9.93831793,16.6687788 C10.0475507,16.7780116 10.211828,16.8106884 10.3545475,16.7515721 C10.497267,16.6924557 10.5903226,16.5531882 10.5903226,16.3987097 C10.5906669,16.2973089 10.550538,16.199962 10.4788364,16.1282604 C10.4071348,16.0565588 10.3097878,16.0164299 10.2083871,16.0167742 Z" id="Path"></path>
    </g>
</svg>