<?xml version="1.0" encoding="UTF-8"?>
<svg width="24px" height="24px" viewBox="0 0 24 24" version="1.1" xmlns="http://www.w3.org/2000/svg" xmlns:xlink="http://www.w3.org/1999/xlink"> 
	<g transform="translate(2.000000, 2.000000)" fill="#000000" fill-rule="nonzero" id="Shape" stroke="#000000" stroke-width="0.3">
		<path d="M3.25210227,3.57210227 L0.687102273,3.57210227 C0.510269765,3.57210261 0.366821975,3.42893445 0.366477273,3.25210227 L0.366477273,0.687102273 C0.366477273,0.510025975 0.510025975,0.366477273 0.687102273,0.366477273 L3.24960227,0.366477273 C3.42667857,0.366477273 3.57022727,0.510025975 3.57022727,0.687102273 L3.57022727,3.24960227 C3.57126676,3.42643743 3.42893514,3.57072647 3.25210227,3.57210227 Z M1.00772727,2.92897727 L2.92897727,2.92897727 L2.92897727,1.00772727 L1.00772727,1.00772727 L1.00772727,2.92897727 Z"></path>
		<path d="M3.25210227,19.6039773 L0.687102273,19.6039773 C0.601741372,19.6039787 0.519903706,19.5699415 0.459720665,19.5094065 C0.399537624,19.4488715 0.365978086,19.3668367 0.366477273,19.2814773 L0.366477273,16.7189773 C0.366477273,16.541901 0.510025975,16.3983523 0.687102273,16.3983523 L3.24960227,16.3983523 C3.42667857,16.3983523 3.57022727,16.541901 3.57022727,16.7189773 L3.57022727,19.2814773 C3.57126676,19.4583125 3.42893514,19.6026015 3.25210227,19.6039773 Z M1.00772727,18.9627273 L2.92897727,18.9627273 L2.92897727,17.0389773 L1.00772727,17.0389773 L1.00772727,18.9627273 Z"></path>
		<path d="M19.2814773,3.57210227 L16.7189773,3.57210227 C16.541901,3.57210227 16.3983523,3.42855357 16.3983523,3.25147727 L16.3983523,0.687102273 C16.3983469,0.510997709 16.5403781,0.367850407 16.7164773,0.366477273 L19.2789773,0.366477273 C19.4560535,0.366477273 19.5996023,0.510025975 19.5996023,0.687102273 L19.5996023,3.24960227 C19.6006417,3.42643743 19.4583101,3.57072647 19.2814773,3.57210227 Z M17.0371023,2.92897727 L18.9608523,2.92897727 L18.9608523,1.00772727 L17.0371023,1.00772727 L17.0371023,2.92897727 Z"></path>
		<path d="M19.2814773,19.6039773 L16.7189773,19.6039773 C16.541901,19.6039773 16.3983523,19.4604285 16.3983523,19.2833523 L16.3983523,16.7208523 C16.3983523,16.543776 16.541901,16.4002273 16.7189773,16.4002273 L19.2814773,16.4002273 C19.4585535,16.4002273 19.6021023,16.543776 19.6021023,16.7208523 L19.6021023,19.2833523 C19.6021023,19.4604285 19.4585535,19.6039773 19.2814773,19.6039773 Z M17.0371023,18.9627273 L18.9608523,18.9627273 L18.9608523,17.0389773 L17.0371023,17.0389773 L17.0371023,18.9627273 Z"></path>
		<path d="M15.4346023,18.3196023 L14.7933523,18.3196023 C14.616276,18.3196023 14.4727273,18.1760535 14.4727273,17.9989773 C14.4727273,17.821901 14.616276,17.6783523 14.7933523,17.6783523 L15.4346023,17.6783523 C15.6116785,17.6783523 15.7552273,17.821901 15.7552273,17.9989773 C15.7552273,18.1760535 15.6116785,18.3196023 15.4346023,18.3196023 Z M13.5108523,18.3196023 L12.5489773,18.3196023 C12.371901,18.3196023 12.2283523,18.1760535 12.2283523,17.9989773 C12.2283523,17.821901 12.371901,17.6783523 12.5489773,17.6783523 L13.5108523,17.6783523 C13.6879285,17.6783523 13.8314773,17.821901 13.8314773,17.9989773 C13.8314773,18.1760535 13.6879285,18.3196023 13.5108523,18.3196023 Z M11.2664773,18.3196023 L10.6283523,18.3196023 C10.451276,18.3196023 10.3077273,18.1760535 10.3077273,17.9989773 C10.3077273,17.821901 10.451276,17.6783523 10.6283523,17.6783523 L11.2696023,17.6783523 C11.4466785,17.6783523 11.5902273,17.821901 11.5902273,17.9989773 C11.5902273,18.1760535 11.4466785,18.3196023 11.2696023,18.3196023 L11.2664773,18.3196023 Z M9.34272727,18.3196023 L8.70210227,18.3196023 C8.52502597,18.3196023 8.38147727,18.1760535 8.38147727,17.9989773 C8.38147727,17.821901 8.52502597,17.6783523 8.70210227,17.6783523 L9.34335227,17.6783523 C9.52042855,17.6783523 9.66397727,17.821901 9.66397727,17.9989773 C9.66397727,18.1760535 9.52042855,18.3196023 9.34335227,18.3196023 L9.34272727,18.3196023 Z M7.41897727,18.3196023 L6.45772727,18.3196023 C6.28065097,18.3196023 6.13710227,18.1760535 6.13710227,17.9989773 C6.13710227,17.821901 6.28065097,17.6783523 6.45772727,17.6783523 L7.41960227,17.6783523 C7.59667857,17.6783523 7.74022727,17.821901 7.74022727,17.9989773 C7.74022727,18.1760535 7.59667857,18.3196023 7.41960227,18.3196023 L7.41897727,18.3196023 Z M5.17460227,18.3196023 L4.53460227,18.3196023 C4.35752597,18.3196023 4.21397727,18.1760535 4.21397727,17.9989773 C4.21397727,17.821901 4.35752597,17.6783523 4.53460227,17.6783523 L5.17585227,17.6783523 C5.35292857,17.6783523 5.49647727,17.821901 5.49647727,17.9989773 C5.49647727,18.1760535 5.35292857,18.3196023 5.17585227,18.3196023 L5.17460227,18.3196023 Z M17.9983523,17.0371023 L17.3577273,17.0371023 C17.180651,17.0371023 17.0371023,16.8935535 17.0371023,16.7164773 C17.0371023,16.539401 17.180651,16.3958523 17.3577273,16.3958523 L17.6783523,16.3958523 C17.6783523,16.218776 17.821901,16.0752273 17.9989773,16.0752273 C18.1760535,16.0752273 18.3196023,16.218776 18.3196023,16.3958523 L18.3196023,16.7164773 C18.3196023,16.8015123 18.2858223,16.8830645 18.2256934,16.9431934 C18.1655645,17.0033223 18.0840123,17.0371023 17.9989773,17.0371023 L17.9983523,17.0371023 Z M2.61022727,17.0371023 L1.96960227,17.0371023 C1.79252597,17.0371023 1.64897727,16.8935535 1.64897727,16.7164773 L1.64897727,16.3958523 C1.64897727,16.218776 1.79252597,16.0752273 1.96960227,16.0752273 C2.14667857,16.0752273 2.29022727,16.218776 2.29022727,16.3958523 L2.61085227,16.3958523 C2.78792857,16.3958523 2.93147727,16.539401 2.93147727,16.7164773 C2.93147727,16.8935535 2.78792857,17.0371023 2.61085227,17.0371023 L2.61022727,17.0371023 Z M17.9989773,15.4346023 C17.821901,15.4346023 17.6783523,15.2910535 17.6783523,15.1139773 L17.6783523,14.4727273 C17.6783523,14.295651 17.821901,14.1521023 17.9989773,14.1521023 C18.1760535,14.1521023 18.3196023,14.295651 18.3196023,14.4727273 L18.3196023,15.1139773 C18.3196023,15.2910535 18.1760535,15.4346023 17.9989773,15.4346023 Z M1.96960227,15.4346023 C1.79252597,15.4346023 1.64897727,15.2910535 1.64897727,15.1139773 L1.64897727,14.4727273 C1.64897727,14.295651 1.79252597,14.1521023 1.96960227,14.1521023 C2.14667857,14.1521023 2.29022727,14.295651 2.29022727,14.4727273 L2.29022727,15.1139773 C2.29022727,15.2910535 2.14667857,15.4346023 1.96960227,15.4346023 Z M17.9989773,13.5108523 C17.821901,13.5108523 17.6783523,13.3673035 17.6783523,13.1902273 L17.6783523,12.5489773 C17.6783523,12.371901 17.821901,12.2283523 17.9989773,12.2283523 C18.1760535,12.2283523 18.3196023,12.371901 18.3196023,12.5489773 L18.3196023,13.1908523 C18.3192575,13.3676845 18.1758098,13.5108526 17.9989773,13.5108523 Z M1.96960227,13.5108523 C1.79252597,13.5108523 1.64897727,13.3673035 1.64897727,13.1902273 L1.64897727,12.5489773 C1.64897727,12.371901 1.79252597,12.2283523 1.96960227,12.2283523 C2.14667857,12.2283523 2.29022727,12.371901 2.29022727,12.5489773 L2.29022727,13.1908523 C2.28988257,13.3676845 2.14643478,13.5108526 1.96960227,13.5108523 Z M17.9989773,11.5871023 C17.821901,11.5871023 17.6783523,11.4435535 17.6783523,11.2664773 L17.6783523,10.3052273 C17.6783523,10.128151 17.821901,9.98460227 17.9989773,9.98460227 C18.1760535,9.98460227 18.3196023,10.128151 18.3196023,10.3052273 L18.3196023,11.2671023 C18.3192575,11.4439345 18.1758098,11.5871026 17.9989773,11.5871023 Z M1.96960227,11.5871023 C1.79252597,11.5871023 1.64897727,11.4435535 1.64897727,11.2664773 L1.64897727,10.3052273 C1.64897727,10.128151 1.79252597,9.98460227 1.96960227,9.98460227 C2.14667857,9.98460227 2.29022727,10.128151 2.29022727,10.3052273 L2.29022727,11.2671023 C2.28988257,11.4439345 2.14643478,11.5871026 1.96960227,11.5871023 Z M17.9989773,9.34272727 C17.821901,9.34272727 17.6783523,9.19917857 17.6783523,9.02210227 L17.6783523,8.37835227 C17.6783523,8.20127597 17.821901,8.05772727 17.9989773,8.05772727 C18.1760535,8.05772727 18.3196023,8.20127597 18.3196023,8.37835227 L18.3196023,9.01960227 C18.3204364,9.10517746 18.2870249,9.18753481 18.2268055,9.24834124 C18.1665859,9.30914766 18.0845565,9.34335634 17.9989773,9.34335227 L17.9989773,9.34272727 Z M1.96960227,9.34272727 C1.79252597,9.34272727 1.64897727,9.19917857 1.64897727,9.02210227 L1.64897727,8.37835227 C1.64897727,8.20127597 1.79252597,8.05772727 1.96960227,8.05772727 C2.14667857,8.05772727 2.29022727,8.20127597 2.29022727,8.37835227 L2.29022727,9.01960227 C2.29106138,9.10517746 2.25764993,9.18753481 2.19743043,9.24834124 C2.13721094,9.30914766 2.05518153,9.34335634 1.96960227,9.34335227 L1.96960227,9.34272727 Z M17.9989773,7.41897727 C17.821901,7.41897727 17.6783523,7.27542857 17.6783523,7.09835227 L17.6783523,6.45772727 C17.6783523,6.28065097 17.821901,6.13710227 17.9989773,6.13710227 C18.1760535,6.13710227 18.3196023,6.28065097 18.3196023,6.45772727 L18.3196023,7.09897727 C18.3196023,7.27605357 18.1760535,7.41960227 17.9989773,7.41960227 L17.9989773,7.41897727 Z M1.96960227,7.41897727 C1.79252597,7.41897727 1.64897727,7.27542857 1.64897727,7.09835227 L1.64897727,6.45772727 C1.64897727,6.28065097 1.79252597,6.13710227 1.96960227,6.13710227 C2.14667857,6.13710227 2.29022727,6.28065097 2.29022727,6.45772727 L2.29022727,7.09897727 C2.29022727,7.27605357 2.14667857,7.41960227 1.96960227,7.41960227 L1.96960227,7.41897727 Z M17.9989773,5.49522727 C17.821901,5.49522727 17.6783523,5.35167857 17.6783523,5.17460227 L17.6783523,4.21397727 C17.6783523,4.03690097 17.821901,3.89335227 17.9989773,3.89335227 C18.1760535,3.89335227 18.3196023,4.03690097 18.3196023,4.21397727 L18.3196023,5.17585227 C18.3192575,5.35268445 18.1758098,5.49585261 17.9989773,5.49585227 L17.9989773,5.49522727 Z M1.96960227,5.49522727 C1.79252597,5.49522727 1.64897727,5.35167857 1.64897727,5.17460227 L1.64897727,4.21397727 C1.64897727,4.03690097 1.79252597,3.89335227 1.96960227,3.89335227 C2.14667857,3.89335227 2.29022727,4.03690097 2.29022727,4.21397727 L2.29022727,5.17585227 C2.28988257,5.35268445 2.14643478,5.49585261 1.96960227,5.49585227 L1.96960227,5.49522727 Z M3.25335227,2.61085227 C3.07627597,2.61085227 2.93272727,2.46730357 2.93272727,2.29022727 L2.93272727,1.96960227 C2.93272727,1.79252597 3.07627597,1.64897727 3.25335227,1.64897727 L3.57397727,1.64897727 C3.75105357,1.64897727 3.89460227,1.79252597 3.89460227,1.96960227 C3.89460227,2.14667857 3.75105357,2.29022727 3.57397727,2.29022727 C3.57397727,2.46730357 3.43042857,2.61085227 3.25335227,2.61085227 Z M15.7533523,2.29022727 L15.1139773,2.29022727 C14.936901,2.29022727 14.7933523,2.14667857 14.7933523,1.96960227 C14.7933523,1.79252597 14.936901,1.64897727 15.1139773,1.64897727 L15.7533523,1.64897727 C15.9304285,1.64897727 16.0739773,1.79252597 16.0739773,1.96960227 C16.0739773,2.14667857 15.9304285,2.29022727 15.7533523,2.29022727 Z M13.8296023,2.29022727 L13.1908523,2.29022727 C13.013776,2.29022727 12.8702273,2.14667857 12.8702273,1.96960227 C12.8702273,1.79252597 13.013776,1.64897727 13.1908523,1.64897727 L13.8321023,1.64897727 C14.0091785,1.64897727 14.1527273,1.79252597 14.1527273,1.96960227 C14.1527273,2.14667857 14.0091785,2.29022727 13.8321023,2.29022727 L13.8296023,2.29022727 Z M11.9058523,2.29022727 L10.9458523,2.29022727 C10.768776,2.29022727 10.6252273,2.14667857 10.6252273,1.96960227 C10.6252273,1.79252597 10.768776,1.64897727 10.9458523,1.64897727 L11.9077273,1.64897727 C12.0848035,1.64897727 12.2283523,1.79252597 12.2283523,1.96960227 C12.2283523,2.14667857 12.0848035,2.29022727 11.9077273,2.29022727 L11.9058523,2.29022727 Z M9.66147727,2.29022727 L9.02272727,2.29022727 C8.84565097,2.29022727 8.70210227,2.14667857 8.70210227,1.96960227 C8.70210227,1.79252597 8.84565097,1.64897727 9.02272727,1.64897727 L9.66397727,1.64897727 C9.84105355,1.64897727 9.98460227,1.79252597 9.98460227,1.96960227 C9.98460227,2.14667857 9.84105355,2.29022727 9.66397727,2.29022727 L9.66147727,2.29022727 Z M7.73772727,2.29022727 L7.09897727,2.29022727 C6.92190097,2.29022727 6.77835227,2.14667857 6.77835227,1.96960227 C6.77835227,1.79252597 6.92190097,1.64897727 7.09897727,1.64897727 L7.74022727,1.64897727 C7.91730357,1.64897727 8.06085227,1.79252597 8.06085227,1.96960227 C8.06085227,2.14667857 7.91730357,2.29022727 7.74022727,2.29022727 L7.73772727,2.29022727 Z M5.81397727,2.29022727 L4.85522727,2.29022727 C4.67815097,2.29022727 4.53460227,2.14667857 4.53460227,1.96960227 C4.53460227,1.79252597 4.67815097,1.64897727 4.85522727,1.64897727 L5.81585227,1.64897727 C5.99292857,1.64897727 6.13647727,1.79252597 6.13647727,1.96960227 C6.13647727,2.14667857 5.99292857,2.29022727 5.81585227,2.29022727 L5.81397727,2.29022727 Z"></path> 
	</g>
</svg>