<?xml version="1.0" encoding="UTF-8"?>
<svg width="24px" height="24px" viewBox="0 0 24 24" version="1.1" xmlns="http://www.w3.org/2000/svg" xmlns:xlink="http://www.w3.org/1999/xlink">
    <g transform="translate(2.000000, 4.000000)" fill="#000000">
        <path d="M17.1405128,15.6625641 C17.322342,15.6625641 17.4697436,15.5151625 17.4697436,15.3333333 L17.4697436,13.025641 L18.1292308,13.025641 C18.3113431,13.025641 18.4589744,12.8780098 18.4589744,12.6958974 C18.4589744,12.5137851 18.3113431,12.3661538 18.1292308,12.3661538 L16.1517949,12.3661538 L16.1517949,7.09333333 C16.1517949,6.9115042 16.0043932,6.76410256 15.8225641,6.76410256 L3.95538462,6.76410256 C3.77327226,6.76410256 3.62564103,6.9117338 3.62564103,7.09384615 C3.62564103,7.27595851 3.77327226,7.42358974 3.95538462,7.42358974 L15.4892308,7.42358974 L15.4892308,10.72 C15.2048413,10.5044944 14.8573266,10.3887763 14.5005128,10.3907692 L14.1712821,10.3907692 L14.1712821,10.0615385 C14.1712821,9.51548462 13.7286179,9.07282051 13.1825641,9.07282051 L11.2071795,9.07282051 C10.6611256,9.07282051 10.2184615,9.51548462 10.2184615,10.0615385 L10.2184615,10.3907692 L9.55948718,10.3907692 L9.55948718,10.0615385 C9.55948718,9.51548462 9.11682308,9.07282051 8.57076923,9.07282051 L6.59230769,9.07282051 C6.04625385,9.07282051 5.60358974,9.51548462 5.60358974,10.0615385 L5.60358974,10.3907692 L5.27435897,10.3907692 C4.36488062,10.3904852 3.62705585,11.126933 3.62564103,12.0364103 L3.62564103,12.365641 L1.64769231,12.365641 C1.46557995,12.365641 1.31794872,12.5132723 1.31794872,12.6953846 C1.31794872,12.877497 1.46557995,13.0251282 1.64769231,13.0251282 L2.30717949,13.0251282 L2.30717949,15.3328205 C2.30717949,15.5146496 2.45458112,15.6620513 2.63641026,15.6620513 L3.62615385,15.6620513 L3.62615385,16.6507692 C3.62615385,16.7380867 3.66084056,16.8218278 3.72258331,16.8835705 C3.78432605,16.9453133 3.86806719,16.98 3.95538462,16.98 L5.27435897,16.98 C5.3616764,16.98 5.44541754,16.9453133 5.50716028,16.8835705 C5.56890303,16.8218278 5.60358974,16.7380867 5.60358974,16.6507692 L5.60358974,15.6620513 L10.8764103,15.6620513 C11.0585226,15.6620513 11.2061538,15.51442 11.2061538,15.3323077 C11.2061538,15.1501953 11.0585226,15.0025641 10.8764103,15.0025641 L2.96666667,15.0025641 L2.96666667,13.0251282 L16.805641,13.0251282 L16.805641,15.0025641 L12.1902564,15.0025641 C12.0081441,15.0025641 11.8605128,15.1501953 11.8605128,15.3323077 C11.8605128,15.51442 12.0081441,15.6620513 12.1902564,15.6620513 L14.1676923,15.6620513 L14.1676923,16.6507692 C14.1676923,16.8325984 14.3150939,16.98 14.4969231,16.98 L15.8158974,16.98 C15.9977266,16.98 16.1451282,16.8325984 16.1451282,16.6507692 L16.1451282,15.6620513 L17.1405128,15.6625641 Z M4.94512821,15.6625641 L4.94512821,16.3220513 L4.28564103,16.3220513 L4.28564103,15.6625641 L4.94512821,15.6625641 Z M10.8784615,10.0589744 C10.8784615,9.87714523 11.0258632,9.72974359 11.2076923,9.72974359 L13.1851282,9.72974359 C13.3669573,9.72974359 13.514359,9.87714523 13.514359,10.0589744 L13.514359,10.3882051 L10.8774359,10.3882051 L10.8784615,10.0589744 Z M6.26307692,10.0589744 C6.26307692,9.87714523 6.41047856,9.72974359 6.59230769,9.72974359 L8.56974359,9.72974359 C8.65706102,9.72974359 8.74080215,9.7644303 8.8025449,9.82617305 C8.86428765,9.8879158 8.89897436,9.97165693 8.89897436,10.0589744 L8.89897436,10.3882051 L6.26307692,10.3882051 L6.26307692,10.0589744 Z M4.28410256,12.0364103 C4.28410256,11.4903564 4.72676667,11.0476923 5.27282051,11.0476923 L14.5010256,11.0476923 C15.0470795,11.0476923 15.4897436,11.4903564 15.4897436,12.0364103 L15.4897436,12.365641 L4.28564103,12.365641 L4.28410256,12.0364103 Z M15.4907692,16.3215385 L14.8328205,16.3215385 L14.8328205,15.6620513 L15.4923077,15.6620513 L15.4907692,16.3215385 Z" id="Shape" fill-rule="nonzero"></path>
        <path d="M9.88871795,5.11538462 C11.1632212,5.11538462 12.1964103,4.08219558 12.1964103,2.80769231 C12.1964103,1.53318904 11.1632212,0.5 9.88871795,0.5 C8.61421468,0.5 7.58102564,1.53318904 7.58102564,2.80769231 C7.58102564,4.08219558 8.61421468,5.11538462 9.88871795,5.11538462 Z M9.88871795,1.15948718 C10.7989965,1.15948718 11.5369231,1.89741375 11.5369231,2.80769231 C11.5369231,3.71797086 10.7989965,4.45589744 9.88871795,4.45589744 C8.97843939,4.45589744 8.24051282,3.71797086 8.24051282,2.80769231 C8.24010455,2.37029463 8.41357398,1.95067187 8.72271666,1.64124062 C9.03185934,1.33180938 9.45132008,1.15794853 9.88871795,1.15794872 L9.88871795,1.15948718 Z" id="Shape" fill-rule="nonzero"></path>
        <path d="M9.88769231,3.1374359 L10.5471795,3.1374359 C10.7292918,3.1374359 10.8769231,2.98980466 10.8769231,2.80769231 C10.8769231,2.62557995 10.7292918,2.47794872 10.5471795,2.47794872 L10.2179487,2.47794872 L10.2179487,2.14871795 C10.2179487,1.96660559 10.0703175,1.81897436 9.88820513,1.81897436 C9.70609277,1.81897436 9.55846154,1.96660559 9.55846154,2.14871795 L9.55846154,2.80820513 C9.55846154,2.99003426 9.70586317,3.1374359 9.88769231,3.1374359 Z" id="Path"></path>
        <path d="M19.4476923,11.0482051 L19.1774359,11.0482051 L19.4476923,9.45282051 C19.463415,9.35624426 19.4353657,9.25767849 19.3711503,9.18385059 C19.3069349,9.1100227 19.2132079,9.0685833 19.1153846,9.07076923 L17.1379487,9.07076923 C17.0405532,9.0694813 16.9475866,9.11138648 16.8840503,9.18521523 C16.820514,9.25904399 16.7929306,9.35721725 16.8087179,9.45333333 L17.0825641,11.0487179 C16.9134129,11.0787617 16.7950475,11.2327854 16.8095569,11.4039702 C16.8240664,11.575155 16.9666668,11.7070596 17.1384615,11.7082051 L19.1153846,11.7082051 L19.1153846,13.6861538 L18.4558974,13.6861538 C18.2737851,13.6861538 18.1261538,13.8337851 18.1261538,14.0158974 C18.1261538,14.1980098 18.2737851,14.345641 18.4558974,14.345641 L19.1153846,14.345641 L19.1153846,16.3230769 L17.1379487,16.3230769 C16.9558364,16.3230769 16.8082051,16.4707082 16.8082051,16.6528205 C16.8082051,16.8349329 16.9558364,16.9825641 17.1379487,16.9825641 L19.445641,16.9825641 C19.6274702,16.9825641 19.7748718,16.8351625 19.7748718,16.6533333 L19.7748718,11.3784615 C19.7748753,11.1974305 19.6287199,11.0503587 19.4476923,11.0492308 L19.4476923,11.0482051 Z M17.7502564,11.0482051 L17.5292308,9.72923077 L18.7287179,9.72923077 L18.5076923,11.0482051 L17.7502564,11.0482051 Z" id="Shape" fill-rule="nonzero"></path>
        <path d="M2.63692308,16.3210256 L0.659487179,16.3210256 L0.659487179,14.3435897 L1.31897436,14.3435897 C1.50108671,14.3435897 1.64871795,14.1959585 1.64871795,14.0138462 C1.64871795,13.8317338 1.50108671,13.6841026 1.31897436,13.6841026 L0.659487179,13.6841026 L0.659487179,11.7066667 L2.63692308,11.7066667 C2.81903543,11.7066667 2.96666667,11.5590354 2.96666667,11.3769231 C2.96666667,11.1948107 2.81903543,11.0471795 2.63692308,11.0471795 L2.30769231,11.0471795 L2.30769231,9.72923077 L3.62564103,9.72923077 C3.73613135,9.72924795 3.839263,9.67384035 3.90024213,9.581701 C3.96122125,9.48956165 3.97191588,9.37297793 3.92871795,9.27128205 L2.94,6.96358974 C2.88829107,6.84198056 2.7690688,6.76290251 2.63692308,6.7625641 L1.31897436,6.7625641 C1.18682863,6.76290251 1.06760637,6.84198056 1.01589744,6.96358974 L0.0271794872,9.27128205 C-0.0160184468,9.37297793 -0.0053238116,9.48956165 0.0556553099,9.581701 C0.116634431,9.67384035 0.219766082,9.72924795 0.33025641,9.72923077 L1.64820513,9.72923077 L1.64820513,11.0482051 L0.329230769,11.0482051 C0.241824416,11.048205 0.158005471,11.0829621 0.0962479626,11.1448158 C0.0344904538,11.2066695 -0.000136146968,11.2905425 -4.23451358e-17,11.3779487 L-4.23451358e-17,16.6497436 C-2.00774866e-17,16.8315727 0.147401636,16.9789744 0.329230769,16.9789744 L2.63692308,16.9789744 C2.81903543,16.9789744 2.96666667,16.8313431 2.96666667,16.6492308 C2.96666667,16.4671184 2.81903543,16.3194872 2.63692308,16.3194872 L2.63692308,16.3210256 Z M1.53846154,7.42205128 L2.41897436,7.42205128 L3.12461538,9.07025641 L0.816923077,9.07025641 L1.53846154,7.42205128 Z" id="Shape" fill-rule="nonzero"></path>
    </g>
</svg>