<?xml version="1.0" encoding="UTF-8"?>
<svg width="24px" height="24px" viewBox="0 0 24 24" version="1.1" xmlns="http://www.w3.org/2000/svg" xmlns:xlink="http://www.w3.org/1999/xlink">
    <g transform="translate(2.000000, 2.000000)" fill="#000000" id="Group" stroke="#000000" stroke-width="0.3">
        <g transform="translate(5.218125, 5.061250)">
            <path d="M2.96875,3.130625 C2.92630452,3.17084141 2.90195389,3.2265322 2.90125,3.285 C2.90092845,3.34379295 2.92331857,3.40043995 2.96375,3.443125 C3.00544473,3.48566992 3.06230943,3.50994418 3.121875,3.510625 C3.17954839,3.51089434 3.23500796,3.48844108 3.27625,3.448125 C3.5644307,3.22151259 3.62260586,2.80794513 3.408125,2.510625 C3.310625,2.31875 3.2725,2.2475 3.470625,2.063125 C3.51307048,2.02290859 3.53742111,1.9672178 3.538125,1.90875 C3.54178772,1.81836005 3.49020645,1.73479795 3.40776177,1.69756043 C3.32531708,1.66032292 3.22852082,1.67686783 3.163125,1.739375 C3.01371238,1.84729878 2.91343791,2.01028811 2.884469,2.19231139 C2.85550009,2.37433468 2.90022265,2.56040021 3.00875,2.709375 C3.1125,2.905 3.1425,2.96125 2.96875,3.130625 Z" id="Path"></path>
            <path d="M4.0675,2.074375 C4.02505452,2.11459141 4.00070389,2.1702822 4,2.22875 C3.99967845,2.28754295 4.02206857,2.34418995 4.0625,2.386875 C4.10419473,2.42941992 4.16105943,2.45369418 4.220625,2.454375 C4.27829839,2.45464434 4.33375796,2.43219108 4.375,2.391875 C4.6631807,2.16526259 4.72135586,1.75169513 4.506875,1.454375 C4.409375,1.2625 4.37125,1.19125 4.569375,1.006875 C4.61141087,0.966007154 4.63679762,0.911002533 4.640625,0.8525 C4.64309432,0.793324217 4.62038554,0.735870998 4.578125,0.694375 C4.49430001,0.606378771 4.35556053,0.60138415 4.265625,0.683125 C3.95570493,0.908307907 3.88514132,1.34117243 4.1075,1.653125 C4.214375,1.84875 4.244375,1.905 4.0675,2.074375 Z" id="Path"></path>
            <path d="M8.371875,3.130625 C8.32942952,3.17084141 8.30507889,3.2265322 8.304375,3.285 C8.30405345,3.34379295 8.32644357,3.40043995 8.366875,3.443125 C8.40856973,3.48566992 8.46543443,3.50994418 8.525,3.510625 C8.58267339,3.51089434 8.63813296,3.48844108 8.679375,3.448125 C8.9675557,3.22151259 9.02573086,2.80794513 8.81125,2.510625 C8.71375,2.31875 8.675625,2.2475 8.87375,2.063125 C8.91619548,2.02290859 8.94054611,1.9672178 8.94125,1.90875 C8.94491272,1.81836005 8.89333145,1.73479795 8.81088677,1.69756043 C8.72844208,1.66032292 8.63164582,1.67686783 8.56625,1.739375 C8.25632993,1.96455791 8.18576632,2.39742243 8.408125,2.709375 C8.51875,2.905 8.54875,2.96125 8.371875,3.130625 Z" id="Path"></path>
            <path d="M9.469375,2.074375 C9.42698902,2.11463317 9.40264995,2.17029753 9.401875,2.22875 C9.40155345,2.28754295 9.42394357,2.34418995 9.464375,2.386875 C9.50606973,2.42941992 9.56293443,2.45369418 9.6225,2.454375 C9.68017339,2.45464434 9.73563296,2.43219108 9.776875,2.391875 C10.0650557,2.16526259 10.1232309,1.75169513 9.90875,1.454375 C9.81125,1.2625 9.773125,1.19125 9.97125,1.006875 C10.0136955,0.966658588 10.0380461,0.910967799 10.03875,0.8525 C10.0424127,0.762110048 9.99083145,0.678547951 9.90838677,0.641310434 C9.82594208,0.604072918 9.72914582,0.62061783 9.66375,0.683125 C9.51433738,0.791048779 9.41406291,0.954038109 9.385094,1.13606139 C9.35612509,1.31808468 9.40084765,1.50415021 9.509375,1.653125 C9.616875,1.84875 9.646875,1.905 9.469375,2.074375 Z" id="Path"></path>
            <path d="M12.583125,5.739375 L11.770625,5.739375 C11.8349611,5.61902075 11.8684601,5.48459542 11.868125,5.348125 L11.868125,4.863125 C11.8676313,4.64267391 11.7793252,4.431504 11.6227402,4.27632649 C11.4661552,4.12114897 11.2541966,4.03475317 11.03375,4.03625 L7.860625,4.03625 C7.4025855,4.03589107 7.0300268,4.40510093 7.02625,4.863125 L7.02625,5.348125 C7.02640186,5.48453582 7.05987185,5.61884485 7.12375,5.739375 L6.296875,5.739375 C6.36121115,5.61902075 6.39471011,5.48459542 6.394375,5.348125 L6.394375,4.863125 C6.39060721,4.4060747 6.01956471,4.03726235 5.5625,4.03625 L2.396875,4.03625 C1.9388355,4.03589107 1.5662768,4.40510093 1.5625,4.863125 L1.5625,5.348125 C1.5626266,5.48453893 1.59609808,5.61885396 1.66,5.739375 L0.8475,5.739375 C0.419658966,5.73670369 0.0581709658,6.05603588 0.00804112622,6.48093832 C-0.0420887133,6.90584077 0.235159198,7.3005308 0.651875,7.3975 C0.853358253,8.18330283 1.20993134,8.92088637 1.700625,9.566875 L1.704375,9.574375 C1.71105055,9.58601569 1.71997346,9.5962133 1.730625,9.604375 C1.7730566,9.65385973 1.83481659,9.68257471 1.9,9.683125 C1.95239252,9.68297159 2.00306018,9.66438608 2.043125,9.630625 C2.08779763,9.59243531 2.1160077,9.53847796 2.121875,9.48 C2.12655612,9.42235144 2.10760617,9.365276 2.069375,9.321875 L2.061875,9.314375 L2.054375,9.303125 C1.62878451,8.73952802 1.31095319,8.10217027 1.116875,7.423125 L6.135625,7.423125 C6.25685123,7.42347953 6.35578828,7.32621467 6.3575,7.205 C6.35733896,7.1465468 6.33379014,7.09058948 6.29210658,7.04961043 C6.25042301,7.00863138 6.19407245,6.98603973 6.135625,6.986875 L0.83875,6.986875 C0.622695552,6.97658011 0.453408,6.79736859 0.455424692,6.58107841 C0.457441383,6.36478823 0.630041152,6.18876446 0.84625,6.1825 L12.586875,6.1825 C12.7343444,6.1766855 12.8731697,6.25204493 12.9486342,6.3788761 C13.0240988,6.50570728 13.0240988,6.66366772 12.9486342,6.7904989 C12.8731697,6.91733007 12.7343444,6.9926895 12.586875,6.986875 L7.0625,6.986875 C6.94127377,6.98652047 6.84233672,7.08378533 6.840625,7.205 C6.84078604,7.2634532 6.86433486,7.31941052 6.90601842,7.36038957 C6.94770199,7.40136862 7.00405255,7.42396027 7.0625,7.423125 L12.13375,7.423125 C11.7087895,8.9306099 10.6786789,10.194888 9.288125,10.915625 C9.26422264,10.9238194 9.24152192,10.9351697 9.220625,10.949375 C8.7418224,11.1868751 8.23173629,11.3552203 7.705625,11.449375 C7.694375,11.449375 7.683125,11.453125 7.671875,11.453125 C7.35751256,11.505616 7.03933967,11.5319562 6.720625,11.531875 L6.533125,11.531875 C6.21173236,11.5327438 5.89089469,11.5051359 5.574375,11.449375 C5.566875,11.449375 5.559375,11.445625 5.551875,11.445625 C5.01688482,11.3522888 4.4987289,11.1799914 4.014375,10.934375 L3.988125,10.919375 C3.4723108,10.655217 3.00047838,10.3128328 2.589375,9.904375 C2.52655759,9.8420047 2.43247703,9.82335916 2.35062019,9.85705689 C2.26876335,9.89075463 2.21507637,9.97023114 2.214375,10.05875 C2.21340767,10.1165554 2.23596566,10.1722737 2.276875,10.213125 C2.66048843,10.5941657 3.09277178,10.922844 3.5625,11.190625 L2.55125,12.5175 C2.28861429,12.8306927 2.21923182,13.2628327 2.370625,13.6425 C2.5093237,13.97316 2.81228878,14.2060272 3.1675,14.255 C3.205,14.25875 3.24625,14.2625 3.2875,14.2625 C3.65490776,14.2533063 3.99466077,14.0652288 4.1975,13.75875 L4.524375,13.33 L8.72375,13.33 L9.050625,13.75875 C9.25346423,14.0652288 9.59321724,14.2533063 9.960625,14.2625 C10.001875,14.2625 10.039375,14.25875 10.08125,14.255 C10.4369163,14.2071177 10.740363,13.9738802 10.878125,13.6425 C11.0295182,13.2628327 10.9601357,12.8306927 10.6975,12.5175 L9.68625,11.198125 C9.98342826,11.0304688 10.2651563,10.8367939 10.528125,10.619375 C11.5356706,9.79697521 12.2575432,8.6771977 12.590625,7.42 C12.8908397,7.41866025 13.1675349,7.25725962 13.316482,6.99659615 C13.4654291,6.73593269 13.4639996,6.41560737 13.312732,6.15628365 C13.1614643,5.89695994 12.8833397,5.73803525 12.583125,5.739375 Z M11.42875,4.864375 L11.42875,5.349375 C11.4277239,5.56502994 11.2531549,5.73959887 11.0375,5.740625 L7.864375,5.740625 C7.76035352,5.74146596 7.66034819,5.7005152 7.5867915,5.6269585 C7.5132348,5.55340181 7.47228404,5.45339648 7.473125,5.349375 L7.473125,4.864375 C7.47415113,4.64872006 7.64872006,4.47415113 7.864375,4.473125 L11.0375,4.473125 C11.1419599,4.47227289 11.2423532,4.51356502 11.3159844,4.58766669 C11.3896156,4.66176835 11.4302674,4.7624226 11.42875,4.866875 L11.42875,4.864375 Z M2.00375,4.864375 C2.00512649,4.64947244 2.18009415,4.47618179 2.395,4.476875 L5.568125,4.476875 C5.67154459,4.47587412 5.77107285,4.51625762 5.84455628,4.58903673 C5.9180397,4.66181584 5.95937984,4.76095057 5.959375,4.864375 L5.959375,5.349375 C5.95834887,5.56502994 5.78377994,5.73959887 5.568125,5.740625 L2.395,5.740625 C2.29118317,5.74079124 2.19157059,5.69962376 2.11816091,5.62621409 C2.04475124,5.55280441 2.00358376,5.45319183 2.00375,5.349375 L2.00375,4.864375 Z M5.12875,11.808125 L3.843125,13.4925 C3.7102548,13.7053205 3.47315904,13.8301957 3.2225,13.819375 C3.02272704,13.7913656 2.85258786,13.6599593 2.775,13.47375 C2.68350659,13.2393648 2.73185857,12.9734289 2.9,12.78625 L3.95625,11.39875 C4.33330579,11.5751566 4.72716781,11.7131444 5.131875,11.810625 L5.12875,11.808125 Z M8.384375,12.890625 L4.858125,12.890625 L5.61375,11.901875 C5.91624658,11.9469263 6.22166706,11.9694881 6.5275,11.969375 L6.719375,11.969375 C7.02521293,11.9696243 7.33064349,11.9470617 7.633125,11.901875 L8.384375,12.890625 Z M10.466875,13.473125 C10.3906595,13.6603816 10.2198145,13.7923331 10.019375,13.81875 C9.76893528,13.8293416 9.53213334,13.7044955 9.399375,13.491875 L8.11375,11.8075 C8.51803338,11.7121649 8.9112199,11.5747486 9.286875,11.3975 L10.343125,12.78125 C10.5123825,12.9698058 10.5614157,13.2374355 10.47,13.47375 L10.466875,13.473125 Z" id="Shape" fill-rule="nonzero"></path>
        </g>
        <g transform="translate(2.977500, 2.352500)">
            <g id="Path">
                <path d="M7.131875,2.305625 C6.15470661,0.899932739 4.37773824,0.291867766 2.74423388,0.804207797 C1.11072952,1.31654783 -0.000668759283,2.83053378 5.29395592e-23,4.5425 C5.29395592e-23,4.63625 0.00375,4.73 0.01125,4.820625 C0.0200850945,4.94927499 0.126673777,5.04932114 0.255625,5.05 L0.274375,5.05 C0.409545185,5.0390229 0.511314787,4.92227902 0.50375,4.786875 C0.49625,4.704375 0.49625,4.625 0.49625,4.5425 C0.496468899,3.04574496 1.46857279,1.72249113 2.89680534,1.27479984 C4.32503789,0.827108543 5.87855394,1.35868593 6.733125,2.5875 C6.76971083,2.64170361 6.82659003,2.67888319 6.89091925,2.69064356 C6.95524847,2.70240393 7.02160302,2.68775338 7.075,2.65 C7.12833266,2.61196955 7.16431547,2.55425743 7.17498904,2.48962954 C7.18566262,2.42500166 7.17014727,2.3587844 7.131875,2.305625 Z"></path>
            </g>
        </g>
        <g transform="translate(0.093750, 5.987500)">
            <g id="Path">
                <path d="M1.815625,0.625 L0.244375,0.625 C0.109410414,0.625 -5.32907052e-15,0.734410414 -5.32907052e-15,0.869375 C-5.32907052e-15,1.00433959 0.109410414,1.11375 0.244375,1.11375 L1.819375,1.11375 C1.88423819,1.11391653 1.94649273,1.08822343 1.99235808,1.04235808 C2.03822343,0.99649273 2.06391653,0.934238188 2.06375,0.869375 C2.06071204,0.734231003 1.95079959,0.625979695 1.815625,0.625 Z"></path>
            </g>
        </g>
        <g transform="translate(6.025000, 0.093750)">
            <g id="Path">
                <path d="M0.869375,-1.05879118e-22 C0.804511812,-0.00016653019 0.74225727,0.0255265673 0.696391919,0.0713919187 C0.650526567,0.11725727 0.62483347,0.179511812 0.625,0.244375 L0.625,1.819375 C0.625,1.95433959 0.734410414,2.06375 0.869375,2.06375 C1.00433959,2.06375 1.11375,1.95433959 1.11375,1.819375 L1.11375,0.244375 C1.11391653,0.179511812 1.08822343,0.11725727 1.04235808,0.0713919187 C0.99649273,0.0255265673 0.934238188,-0.00016653019 0.869375,-1.05879118e-22 Z"></path>
            </g>
        </g>
        <g transform="translate(1.955000, 1.705000)">
            <g id="Path">
                <path d="M0.0475,0.725 C0.0091721793,0.777255703 -0.00676881652,0.842623099 0.00319979062,0.90665674 C0.0131683978,0.970690382 0.0482259038,1.02811845 0.100625,1.06625 L1.371875,1.996875 C1.48077865,2.07661111 1.63370139,2.05296615 1.7134375,1.9440625 C1.79317361,1.83515885 1.76952865,1.68223611 1.660625,1.6025 L0.389375,0.671875 C0.33707671,0.633348836 0.271564169,0.617290785 0.207377773,0.627264905 C0.143191378,0.637239025 0.0856410542,0.67242019 0.0475,0.725 Z"></path>
            </g>
        </g>
        <g transform="translate(10.173750, 2.011875)">
            <g id="Path">
                <path d="M1.529375,0.070625 C1.4327181,-0.0218364362 1.2804069,-0.0218364362 1.18375,0.070625 L0.07125,1.183125 C-0.0212114362,1.2797819 -0.0212114362,1.4320931 0.07125,1.52875 C0.166829564,1.62385831 0.321295436,1.62385831 0.416875,1.52875 L1.529375,0.41625 C1.5761539,0.370925333 1.60255977,0.308572671 1.60255977,0.2434375 C1.60255977,0.178302329 1.5761539,0.115949667 1.529375,0.070625 Z"></path>
            </g>
        </g>
        <g transform="translate(3.544375, 0.559375)">
            <path d="M1.669375,1.635625 L1.47,1.150625 C1.41651262,1.02876945 1.27535546,0.972113522 1.15246421,1.02317637 C1.02957296,1.07423922 0.97013173,1.21424628 1.01875,1.338125 L1.218125,1.823125 C1.25600105,1.91430102 1.34501976,1.97372902 1.44375,1.97375 C1.47584662,1.97294575 1.50756302,1.96660247 1.5375,1.955 C1.59777904,1.93067057 1.64572815,1.88310226 1.67053743,1.82301912 C1.69534671,1.76293598 1.69492775,1.69539574 1.669375,1.635625 Z" id="Path"></path>
        </g>
        <g transform="translate(10.255625, 3.503125)">
            <g id="Path">
                <path d="M1.955,1.150625 C1.90320306,1.02603604 1.76023428,0.967001964 1.635625,1.01875 L1.150625,1.218125 C1.04307377,1.26287338 0.982059016,1.37731482 1.00484595,1.49155333 C1.02763289,1.60579185 1.12788603,1.68806549 1.244375,1.688125 C1.27647022,1.68730828 1.30818451,1.68096542 1.338125,1.669375 L1.823125,1.47 C1.88340404,1.44567057 1.93135315,1.39810226 1.95616243,1.33801912 C1.98097171,1.27793598 1.98055275,1.21039574 1.955,1.150625 Z"></path>
            </g>
        </g>
        <g transform="translate(7.560000, 0.559375)">
            <g id="Path">
                <path d="M1.538125,1.019375 C1.41351572,0.967626964 1.27054694,1.02666104 1.21875,1.15125 L1.019375,1.63625 C0.967626964,1.76085928 1.02666104,1.90382806 1.15125,1.955625 C1.18118698,1.96722747 1.21290338,1.97357075 1.245,1.974375 C1.34404071,1.97538755 1.43358444,1.91560905 1.470625,1.82375 L1.67,1.33875 C1.72174804,1.21414072 1.66271396,1.07117194 1.538125,1.019375 Z"></path>
            </g>
        </g>
        <g transform="translate(0.559375, 3.540625)">
            <g id="Path">
                <path d="M1.82375,1.218125 L1.33875,1.01875 C1.21487128,0.97013173 1.07486422,1.02957296 1.02380137,1.15246421 C0.972738522,1.27535546 1.02939445,1.41651262 1.15125,1.47 L1.63625,1.669375 C1.66618698,1.68097747 1.69790338,1.68732075 1.73,1.688125 C1.84648897,1.68806549 1.94674211,1.60579185 1.96952905,1.49155333 C1.99231598,1.37731482 1.93130123,1.26287338 1.82375,1.218125 Z"></path>
            </g>
        </g>
    </g>
</svg>