<?xml version="1.0" encoding="UTF-8"?>
<svg width="24px" height="24px" viewBox="0 0 24 24" version="1.1" xmlns="http://www.w3.org/2000/svg" xmlns:xlink="http://www.w3.org/1999/xlink">
    <g transform="translate(2.000000, 2.000000)" fill="#000000" stroke="#000000" stroke-width="0.4">
        <path d="M7.44294117,13.2758824 L6.14882353,13.2758824 C5.98590182,13.2641162 5.85750243,13.0437418 5.85750243,12.7758824 C5.85750243,12.508023 5.98590182,12.2876486 6.14882353,12.2758824 L7.44294117,12.2758824 C7.60586289,12.2876486 7.73426228,12.508023 7.73426228,12.7758824 C7.73426228,13.0437418 7.60586289,13.2641162 7.44294117,13.2758824 Z M4.53117647,13.2758824 L3.23705883,13.2758824 C3.07413711,13.2641162 2.94573772,13.0437418 2.94573772,12.7758824 C2.94573772,12.508023 3.07413711,12.2876486 3.23705883,12.2758824 L4.53117647,12.2758824 C4.69409818,12.2876486 4.82249757,12.508023 4.82249757,12.7758824 C4.82249757,13.0437418 4.69409818,13.2641162 4.53117647,13.2758824 Z" id="Shape" fill-rule="nonzero"></path>
        <path d="M1.61941176,12.8858824 L1.01058824,12.8858824 C0.929727318,12.8860389 0.852133189,12.8539864 0.794955779,12.7968089 C0.737778369,12.7396315 0.705725797,12.6620374 0.705882353,12.5811765 L0.705882353,11.9723529 C0.700960074,11.8604049 0.757880045,11.7547884 0.854092561,11.6973449 C0.950305073,11.6399015 1.07028316,11.6399015 1.16649567,11.6973449 C1.26270819,11.7547884 1.31962816,11.8604049 1.31470588,11.9723529 L1.31470588,12.2770588 L1.61941176,12.2770588 C1.78233348,12.2842224 1.91073287,12.4183915 1.91073287,12.5814705 C1.91073287,12.7445497 1.78233348,12.8787188 1.61941176,12.8858824 Z" id="Path"></path>
        <path d="M1.2060697,10.6594117 C0.929928372,10.6594117 0.706071601,10.5229903 0.706071601,10.3547059 L0.706071601,9.06058824 C0.697994532,8.94864017 0.791395676,8.84302361 0.949272752,8.78558016 C1.10714983,8.72813672 1.30402432,8.72813672 1.4619014,8.78558016 C1.61977848,8.84302361 1.71317962,8.94864017 1.70510255,9.06058824 L1.70510255,10.3547059 C1.70510307,10.5227608 1.481834,10.6590874 1.2060697,10.6594117 Z M1.2060697,7.74764705 C1.07338337,7.74780362 0.946057582,7.71575105 0.852234004,7.65857364 C0.758410425,7.60139622 0.705814705,7.52380209 0.706071601,7.44294117 L0.706071601,6.14882353 C0.717826426,5.98590182 0.937987212,5.85750243 1.20558708,5.85750243 C1.47318694,5.85750243 1.69334773,5.98590182 1.70510255,6.14882353 L1.70510255,7.44294117 C1.70535888,7.52370006 1.65289553,7.60120478 1.55928092,7.65836519 C1.46566631,7.7155256 1.33858885,7.74764721 1.2060697,7.74764705 Z M1.2060697,4.83588235 C1.07338337,4.83603891 0.946057582,4.80398634 0.852234004,4.74680893 C0.758410425,4.68963152 0.705814705,4.61203739 0.706071601,4.53117647 L0.706071601,3.23705883 C0.717826426,3.07413711 0.937987212,2.94573772 1.20558708,2.94573772 C1.47318694,2.94573772 1.69334773,3.07413711 1.70510255,3.23705883 L1.70510255,4.53117647 C1.70510255,4.69913601 1.48167793,4.83529412 1.2060697,4.83529412 L1.2060697,4.83588235 Z" id="Shape" fill-rule="nonzero"></path>
        <path d="M1.01058824,1.92411765 C0.929727318,1.9242742 0.852133189,1.89222163 0.794955779,1.83504422 C0.737778369,1.77786681 0.705725797,1.70027268 0.705882353,1.61941176 L0.705882353,1.01058824 C0.705725797,0.929727318 0.737778369,0.852133189 0.794955779,0.794955779 C0.852133189,0.737778369 0.929727318,0.705725797 1.01058824,0.705882353 L1.61941176,0.705882353 C1.78233348,0.713045909 1.91073287,0.847214993 1.91073287,1.01029412 C1.91073287,1.17337325 1.78233348,1.30754233 1.61941176,1.31470588 L1.31470588,1.31470588 L1.31470588,1.61941176 C1.3147062,1.78746673 1.17864288,1.92379322 1.01058824,1.92411765 Z" id="Path"></path>
        <path d="M10.3547059,1.70510255 L9.06058824,1.70510255 C8.94864017,1.71317962 8.84302361,1.61977848 8.78558016,1.4619014 C8.72813672,1.30402432 8.72813672,1.10714983 8.78558016,0.949272752 C8.84302361,0.791395676 8.94864017,0.697994532 9.06058824,0.706071601 L10.3547059,0.706071601 C10.4666539,0.697994532 10.5722705,0.791395676 10.6297139,0.949272752 C10.6871574,1.10714983 10.6871574,1.30402432 10.6297139,1.4619014 C10.5722705,1.61977848 10.4666539,1.71317962 10.3547059,1.70510255 Z M7.44294117,1.70510255 L6.14882353,1.70510255 C5.98590182,1.69334773 5.85750243,1.47318694 5.85750243,1.20558708 C5.85750243,0.937987212 5.98590182,0.717826426 6.14882353,0.706071601 L7.44294117,0.706071601 C7.60586289,0.717826426 7.73426228,0.937987212 7.73426228,1.20558708 C7.73426228,1.47318694 7.60586289,1.69334773 7.44294117,1.70510255 Z M4.53117647,1.70510255 L3.23705883,1.70510255 C3.07413711,1.69334773 2.94573772,1.47318694 2.94573772,1.20558708 C2.94573772,0.937987212 3.07413711,0.717826426 3.23705883,0.706071601 L4.53117647,0.706071601 C4.69409818,0.717826426 4.82249757,0.937987212 4.82249757,1.20558708 C4.82249757,1.47318694 4.69409818,1.69334773 4.53117647,1.70510255 Z" id="Shape" fill-rule="nonzero"></path>
        <path d="M12.5817647,1.92411765 C12.4134803,1.92411765 12.2770588,1.78769617 12.2770588,1.61941176 L12.2770588,1.31470588 L11.9723529,1.31470588 C11.8604049,1.31962816 11.7547884,1.26270819 11.6973449,1.16649567 C11.6399015,1.07028316 11.6399015,0.950305073 11.6973449,0.854092561 C11.7547884,0.757880045 11.8604049,0.700960074 11.9723529,0.705882353 L12.5811765,0.705882353 C12.6620374,0.705725797 12.7396315,0.737778369 12.7968089,0.794955779 C12.8539864,0.852133189 12.8860389,0.929727318 12.8858824,1.01058824 L12.8858824,1.61941176 C12.8860385,1.70017065 12.8540666,1.77767537 12.7970166,1.83483578 C12.7399665,1.89199619 12.6625237,1.9241178 12.5817647,1.92411765 Z" id="Path"></path>
        <path d="M12.7775419,7.74764705 C12.5011327,7.74764705 12.2770588,7.61122559 12.2770588,7.44294117 L12.2770588,6.14882353 C12.288825,5.98590182 12.5091994,5.85750243 12.7770588,5.85750243 C13.0449182,5.85750243 13.2652926,5.98590182 13.2770588,6.14882353 L13.2770588,7.44294117 C13.2770593,7.61099614 13.0535737,7.74732263 12.7775419,7.74764705 Z M12.7775419,4.83588235 C12.5011327,4.83588235 12.2770588,4.69946088 12.2770588,4.53117647 L12.2770588,3.23705883 C12.288825,3.07413711 12.5091994,2.94573772 12.7770588,2.94573772 C13.0449182,2.94573772 13.2652926,3.07413711 13.2770588,3.23705883 L13.2770588,4.53117647 C13.2765272,4.69900175 13.053197,4.83497045 12.7775419,4.83529412 L12.7775419,4.83588235 Z" id="Shape" fill-rule="nonzero"></path>
        <path d="M18.6717647,18.9764705 L18.0629412,18.9764705 C17.9509931,18.9813929 17.8453765,18.9244729 17.7879331,18.8282604 C17.7304896,18.7320479 17.7304896,18.6120698 17.7879331,18.5158573 C17.8453765,18.4196447 17.9509931,18.3627248 18.0629412,18.3676471 L18.3676471,18.3676471 L18.3676471,18.0629412 C18.3627248,17.9509931 18.4196447,17.8453765 18.5158573,17.7879331 C18.6120698,17.7304896 18.7320479,17.7304896 18.8282604,17.7879331 C18.9244729,17.8453765 18.9813929,17.9509931 18.9764705,18.0629412 L18.9764705,18.6717647 C18.9766272,18.7526256 18.9445745,18.8302197 18.8873972,18.8873972 C18.8302197,18.9445745 18.7526256,18.9766272 18.6717647,18.9764705 Z" id="Path"></path>
        <path d="M16.4447059,19.366279 L15.1505883,19.366279 C14.9876665,19.3545242 14.8592671,19.1343634 14.8592671,18.8667635 C14.8592671,18.5991636 14.9876665,18.3790029 15.1505883,18.367248 L16.4447059,18.367248 C16.6076276,18.3790029 16.736027,18.5991636 16.736027,18.8667635 C16.736027,19.1343634 16.6076276,19.3545242 16.4447059,19.366279 Z M13.5329412,19.366279 L12.2388235,19.366279 C12.0759018,19.3545242 11.9475025,19.1343634 11.9475025,18.8667635 C11.9475025,18.5991636 12.0759018,18.3790029 12.2388235,18.367248 L13.5329412,18.367248 C13.6958629,18.3790029 13.8242623,18.5991636 13.8242623,18.8667635 C13.8242623,19.1343634 13.6958629,19.3545242 13.5329412,19.366279 Z M10.6211765,19.366279 L9.32705882,19.366279 C9.21511073,19.374356 9.10949418,19.2809549 9.05205075,19.1230778 C8.9946073,18.9652007 8.9946073,18.7683263 9.05205075,18.6104492 C9.10949418,18.4525721 9.21511073,18.359171 9.32705882,18.367248 L10.6211765,18.367248 C10.7331245,18.359171 10.8387411,18.4525721 10.8961845,18.6104492 C10.953628,18.7683263 10.953628,18.9652007 10.8961845,19.1230778 C10.8387411,19.2809549 10.7331245,19.374356 10.6211765,19.366279 Z" id="Shape" fill-rule="nonzero"></path>
        <path d="M7.70941176,18.9764705 L7.10058824,18.9764705 C7.01972732,18.9766272 6.94213319,18.9445745 6.88495578,18.8873972 C6.82777837,18.8302197 6.7957258,18.7526256 6.79588235,18.6717647 L6.79588235,18.0629412 C6.79096007,17.9509931 6.84788005,17.8453765 6.94409256,17.7879331 C7.04030507,17.7304896 7.16028316,17.7304896 7.25649567,17.7879331 C7.35270819,17.8453765 7.40962816,17.9509931 7.40470588,18.0629412 L7.40470588,18.3676471 L7.70941176,18.3676471 C7.82135983,18.3627248 7.92697639,18.4196447 7.98441984,18.5158573 C8.04186328,18.6120698 8.04186328,18.7320479 7.98441984,18.8282604 C7.92697639,18.9244729 7.82135983,18.9813929 7.70941176,18.9764705 Z" id="Path"></path>
        <path d="M7.2960697,16.75 C7.16338337,16.7501565 7.03605758,16.718104 6.942234,16.6609265 C6.84841042,16.6037492 6.7958147,16.526155 6.7960716,16.4452941 L6.7960716,15.1511765 C6.78799453,15.0392284 6.88139567,14.9336118 7.03927275,14.8761684 C7.19714983,14.8187249 7.39402432,14.8187249 7.5519014,14.8761684 C7.70977848,14.9336118 7.80317962,15.0392284 7.79510255,15.1511765 L7.79510255,16.4452941 C7.79510307,16.6133491 7.571834,16.7496755 7.2960697,16.75 Z M7.2960697,13.8382353 C7.16338337,13.8383918 7.03605758,13.8063393 6.942234,13.7491619 C6.84841042,13.6919845 6.7958147,13.6143904 6.7960716,13.5335295 L6.7960716,12.2394117 C6.78799453,12.1274637 6.88139567,12.0218472 7.03927275,11.9644037 C7.19714983,11.9069603 7.39402432,11.9069603 7.5519014,11.9644037 C7.70977848,12.0218472 7.80317962,12.1274637 7.79510255,12.2394117 L7.79510255,13.5335295 C7.79403928,13.7010294 7.57092579,13.8364718 7.2960697,13.8364705 L7.2960697,13.8382353 Z" id="Shape" fill-rule="nonzero"></path>
        <path d="M16.4452941,7.79392608 L15.1511765,7.79392608 C15.0392284,7.80200315 14.9336118,7.70860201 14.8761684,7.55072493 C14.8187249,7.39284785 14.8187249,7.19597337 14.8761684,7.03809629 C14.9336118,6.88021921 15.0392284,6.78681806 15.1511765,6.79489513 L16.4452941,6.79489513 C16.6082158,6.80664996 16.7366152,7.02681074 16.7366152,7.29441061 C16.7366152,7.56201047 16.6082158,7.78217126 16.4452941,7.79392608 Z M13.5335295,7.79392608 L12.2394117,7.79392608 C12.1274637,7.80200315 12.0218472,7.70860201 11.9644037,7.55072493 C11.9069603,7.39284785 11.9069603,7.19597337 11.9644037,7.03809629 C12.0218472,6.88021921 12.1274637,6.78681806 12.2394117,6.79489513 L13.5335295,6.79489513 C13.6454775,6.78681806 13.751094,6.88021921 13.8085375,7.03809629 C13.8659809,7.19597337 13.8659809,7.39284785 13.8085375,7.55072493 C13.751094,7.70860201 13.6454775,7.80200315 13.5335295,7.79392608 Z" id="Shape" fill-rule="nonzero"></path>
        <path d="M18.6717647,8.01411765 C18.5909038,8.0142742 18.5133096,7.98222163 18.4561323,7.92504422 C18.3989548,7.86786681 18.3669023,7.79027268 18.3670588,7.70941176 L18.3670588,7.40352941 L18.0623529,7.40352941 C17.9504049,7.40845169 17.8447884,7.35153172 17.7873449,7.2553192 C17.7299015,7.15910669 17.7299015,7.03912861 17.7873449,6.94291609 C17.8447884,6.84670357 17.9504049,6.7897836 18.0623529,6.79470588 L18.6711765,6.79470588 C18.7520374,6.79454933 18.8296315,6.8266019 18.8868089,6.88377931 C18.9439864,6.94095672 18.9760389,7.01855085 18.9758824,7.09941176 L18.9758824,7.70823529 C18.9763522,7.78919764 18.9445188,7.86700527 18.8874347,7.92442064 C18.8303505,7.98183601 18.7527284,8.01411901 18.6717647,8.01411765 Z" id="Path"></path>
        <path d="M18.8672461,16.7505883 C18.7345598,16.7507448 18.607234,16.7186922 18.5134104,16.6615148 C18.4195869,16.6043374 18.3669911,16.5267433 18.367248,16.4458824 L18.367248,15.1517647 C18.3790029,14.988843 18.5991636,14.8604436 18.8667635,14.8604436 C19.1343634,14.8604436 19.3545242,14.988843 19.366279,15.1517647 L19.366279,16.4458824 C19.3662795,16.6139373 19.1430104,16.7502638 18.8672461,16.7505883 Z M18.8672461,13.8388235 C18.7345598,13.8389801 18.607234,13.8069275 18.5134104,13.7497501 C18.4195869,13.6925727 18.3669911,13.6149785 18.367248,13.5341176 L18.367248,12.24 C18.3790029,12.0770783 18.5991636,11.9486789 18.8667635,11.9486789 C19.1343634,11.9486789 19.3545242,12.0770783 19.366279,12.24 L19.366279,13.5341176 C19.3657466,13.7018475 19.1424778,13.8376474 18.8672461,13.8376471 L18.8672461,13.8388235 Z M18.8672461,10.9270588 C18.7346384,10.9270588 18.6074619,10.894956 18.5136941,10.8378125 C18.4199262,10.7806691 18.367248,10.703166 18.367248,10.6223529 L18.367248,9.32823527 C18.359171,9.21628727 18.4525721,9.11067064 18.6104492,9.05322722 C18.7683263,8.99578377 18.9652007,8.99578377 19.1230778,9.05322722 C19.2809549,9.11067064 19.374356,9.21628727 19.366279,9.32823527 L19.366279,10.6223529 C19.3665353,10.7031118 19.314072,10.7806165 19.2204573,10.837777 C19.1268427,10.8949374 18.9997653,10.927059 18.8672461,10.9270588 Z" id="Shape" fill-rule="nonzero"></path>
        <path d="M8.31882353,11.6682353 C8.19568428,11.6681016 8.08472937,11.5938641 8.0376241,11.4800907 C7.99051883,11.3663173 8.01652356,11.2353747 8.10352941,11.1482353 L11.1488235,8.10294117 C11.2246588,8.02091534 11.3392995,7.98696344 11.4475722,8.01446405 C11.5558447,8.04196465 11.6403883,8.12650823 11.6678889,8.23478079 C11.6953895,8.34305336 11.6614376,8.4576941 11.5794117,8.53352941 L8.53411765,11.5788235 C8.47711545,11.636097 8.39962884,11.6682773 8.31882353,11.6682353 Z" id="Path"></path>
        <path d="M10.45,11.6682353 C10.3271184,11.6678662 10.2164842,11.5937215 10.1694318,11.4802045 C10.1223795,11.3666875 10.1481185,11.2360167 10.2347059,11.1488235 L11.1482353,10.2352941 C11.2683908,10.1242067 11.4548359,10.1278611 11.5705463,10.2435714 C11.6862565,10.3592817 11.6899109,10.5457268 11.5788235,10.6658824 L10.6652941,11.5794117 C10.6081953,11.6364695 10.5307206,11.6684331 10.45,11.6682353 Z" id="Path"></path>
        <path d="M8.31882353,9.53647055 C8.19568428,9.536337 8.08472937,9.46209936 8.0376241,9.348326 C7.99051883,9.23455255 8.01652356,9.10361 8.10352941,9.01647059 L9.01705883,8.10294117 C9.09289409,8.02091534 9.20753491,7.98696344 9.31580745,8.01446405 C9.42408,8.04196465 9.50862355,8.12650823 9.53612418,8.23478079 C9.56362482,8.34305336 9.52967291,8.4576941 9.44764709,8.53352941 L8.53411765,9.44705882 C8.47711545,9.50433227 8.39962884,9.53651255 8.31882353,9.53647055 Z" id="Path"></path>
        <path d="M12.58,12.8858824 L7.09882353,12.8858824 C6.93053912,12.8858824 6.79411765,12.7494609 6.79411765,12.5811765 L6.79411765,7.1 C6.79396109,7.01913908 6.82601366,6.94154495 6.88319107,6.88436755 C6.94036848,6.82719014 7.01796261,6.79513756 7.09882353,6.79529412 L12.58,6.79529412 C12.6608609,6.79513756 12.7384551,6.82719014 12.7956325,6.88436755 C12.8528099,6.94154495 12.8848625,7.01913908 12.8847059,7.1 L12.8847059,12.58 C12.8851765,12.6610644 12.8532625,12.7389617 12.7960509,12.7963942 C12.7388394,12.8538266 12.6610656,12.8860405 12.58,12.8858824 Z M7.40352941,12.2770588 L12.2758824,12.2770588 L12.2758824,7.40352941 L7.40352941,7.40352941 L7.40352941,12.2770588 Z" id="Shape" fill-rule="nonzero"></path>
    </g>
</svg>